<svg width="33px" height="34px" viewBox="0 0 33 34" version="1.1" xmlns="http://www.w3.org/2000/svg" xmlns:xlink="http://www.w3.org/1999/xlink">
    <!-- Generator: Sketch 49 (51002) - http://www.bohemiancoding.com/sketch -->
    <desc>Created with Sketch.</desc>
    <defs></defs>
    <g id="Page-1" stroke="none" stroke-width="1" fill="none" fill-rule="evenodd">
        <g id="轻体验详情页-copy" transform="translate(-171.000000, -798.000000)" fill="#F66039" fill-rule="nonzero">
            <g id="点赞" transform="translate(171.000000, 798.000000)">
                <path d="M29.8623845,13.2712886 L21.0466075,13.2712886 C24.4626183,0.655111455 18.6929478,0.0107464074 18.6929478,0.0107464074 C16.2475231,0.0107464074 16.7544681,1.94441036 16.569535,2.26676352 C16.569535,8.43663574 10.0162214,13.2712886 10.0162214,13.2712886 L10.0162214,30.7680011 C10.0162214,32.4950799 12.3698811,33.1171104 13.2931816,33.1171104 L26.5388593,33.1171104 C27.7854609,33.1171104 28.8006023,29.8478858 28.8006023,29.8478858 C32.0776004,18.7049927 32.0776004,15.3895443 32.0776004,15.3895443 C32.0776383,13.0873414 29.8623845,13.2712886 29.8623845,13.2712886 Z" id="Shape"></path>
                <path d="M1.11963806,13.2770903 C0.0294541446,13.2770903 0.0126558192,14.3478594 0.0126558192,14.3478594 L1.10283973,31.9939366 C1.10283973,33.1170725 2.22790954,33.1170725 2.22790954,33.1170725 L6.79678505,33.1170725 C7.74860094,33.1170725 7.74018282,32.3741169 7.74018282,32.3741169 L7.74018282,14.6152294 C7.74018282,13.2599506 6.39847926,13.2770903 6.39847926,13.2770903 L1.11963806,13.2770903 Z" id="Shape"></path>
            </g>
        </g>
    </g>
</svg>