<svg width="16px" height="16px" viewBox="0 0 16 16" version="1.1" xmlns="http://www.w3.org/2000/svg" xmlns:xlink="http://www.w3.org/1999/xlink">
    <!-- Generator: Sketch 48.1 (47250) - http://www.bohemiancoding.com/sketch -->
    <desc>Created with Sketch.</desc>
    <defs></defs>
    <g id="Page-1" stroke="none" stroke-width="1" fill="none" fill-rule="evenodd">
        <g id="折扣试用预约" transform="translate(-102.000000, -507.000000)" fill="#999999" fill-rule="nonzero">
            <g id="免费试用-copy" transform="translate(12.000000, 312.000000)">
                <g id="时间" transform="translate(90.000000, 195.000000)">
                    <path d="M13.4486624,2.15153508 L13.4483124,2.15195895 C13.3485431,2.05520649 13.2126314,1.99557012 13.0627196,1.99557012 C12.7566696,1.99557012 12.5085543,2.24379085 12.5085543,2.54997092 C12.5085543,2.73665709 12.6008815,2.90165228 12.7422642,3.0021274 L12.7418958,3.00255127 C12.7851304,3.04359274 12.8278676,3.08515023 12.8700338,3.12729744 C14.1181813,4.37142347 14.8942484,6.0946861 14.8942484,8.00343702 C14.8942484,9.90876013 14.1181813,11.6320043 12.8700338,12.8795582 C11.6206889,14.1213621 9.89930045,14.8942392 7.9953947,14.8942392 C6.09206,14.8942392 4.37006369,14.1213621 3.12252407,12.8795582 C1.877195,11.6320043 1.10575156,9.90876013 1.10575156,8.00343702 C1.10575156,6.0946861 1.877195,4.37142347 3.12252407,3.12729744 C4.37006369,1.87861943 6.09207842,1.10572394 7.9953947,1.10572394 C8.68714798,1.10572394 9.3547879,1.20780239 9.98444329,1.39763993 L9.98444329,1.3976215 C10.0443491,1.41979164 10.1091365,1.4319548 10.1767239,1.4319548 C10.4827739,1.4319548 10.7308891,1.18373407 10.7308891,0.877554006 C10.7308891,0.609743203 10.541077,0.386291098 10.2887064,0.334487068 L10.2887064,0.334468639 C9.56217389,0.116913827 8.79222257,0 7.99465785,0 C5.78604685,0 3.78786134,0.896867639 2.34023054,2.34581402 C0.895178709,3.78947126 0,5.78913263 0,8.00402675 C0,10.2149218 0.895178709,12.2145647 2.34023054,13.6621842 C3.78786134,15.1031508 5.78604685,16 7.99465785,16 C10.2039504,16 12.2013807,15.1031508 13.6511299,13.6621842 C15.0994607,12.2145463 16,10.2149033 16,8.00402675 C16,5.78913263 15.0994607,3.78948969 13.6511299,2.34581402" id="Shape"></path>
                    <path d="M11.8405978,8.41558442 L7.27272727,8.41558442 L7.27272727,9.55844156 L11.8405978,9.55844156 C12.1294545,9.55844156 12.3636364,9.30259394 12.3636364,8.98701299 C12.3636364,8.67143203 12.1294545,8.41558442 11.8405978,8.41558442 Z" id="Shape"></path>
                    <path d="M8.41558442,8.72727273 L8.41558442,2.74125874 C8.41558442,2.43229837 8.1597368,2.18181818 7.84415584,2.18181818 C7.52857489,2.18181818 7.27272727,2.43229837 7.27272727,2.74125874 L7.27272727,8.72727273 L8.41558442,8.72727273 Z" id="Shape"></path>
                </g>
            </g>
        </g>
    </g>
</svg>