
<svg width="27px" height="27px" viewBox="0 0 27 27" version="1.1" xmlns="http://www.w3.org/2000/svg" xmlns:xlink="http://www.w3.org/1999/xlink">
<!-- Generator: Sketch 46.1 (44463) - http://www.bohemiancoding.com/sketch -->
<desc>Created with Sketch.</desc>
<defs></defs>
<g id="Page-1" stroke="none" stroke-width="1" fill="none" fill-rule="evenodd">
    <g id="04-未评分" transform="translate(-228.000000, -769.000000)" stroke="#FFCB76" fill="#FFCB76">
        <g id="Group" transform="translate(55.000000, 743.000000)">
            <g id="Group-3" transform="translate(1.000000, 27.000000)">
                <path d="M198,9.6880888 C198,9.91913557 197.869793,10.1711815 197.609376,10.4442335 L192.155649,16.0207929 L193.447718,23.8972904 C193.457733,23.9708046 193.462741,24.0758235 193.462741,24.2123502 C193.462741,24.4328932 193.410157,24.619302 193.304989,24.7715816 C193.19982,24.9238613 193.047079,25 192.846755,25 C192.656452,25 192.456131,24.9369887 192.245794,24.8109641 L185.500002,21.093257 L178.754206,24.8109641 C178.533854,24.9369887 178.333536,25 178.153245,25 C177.942909,25 177.785157,24.9238613 177.679988,24.7715816 C177.57482,24.619302 177.522236,24.4328932 177.522236,24.2123502 C177.522236,24.1493381 177.532251,24.0443192 177.552285,23.8972904 L178.844351,16.0207929 L173.375601,10.4442335 C173.125199,10.1606766 173,9.90863425 173,9.6880888 C173,9.29951512 173.280446,9.05797055 173.841346,8.96345158 L181.383413,7.81348251 L184.763824,0.645870234 C184.95413,0.215287726 185.19952,0 185.500002,0 C185.800483,0 186.045874,0.215287726 186.23618,0.645870234 L189.616587,7.81348251 L197.158654,8.96345158 C197.719556,9.05797055 198,9.29951512 198,9.6880888 Z" id="Page-1"></path>
            </g>
        </g>
    </g>
</g>
</svg>