
<svg width="13px" height="12px" viewBox="514 480 13 12" version="1.1" xmlns="http://www.w3.org/2000/svg" xmlns:xlink="http://www.w3.org/1999/xlink">
    <!-- Generator: Sketch 40.3 (33839) - http://www.bohemiancoding.com/sketch -->
    <desc>Created with Sketch.</desc>
    <defs></defs>
    <path d="M526.582231,484.650283 C526.582231,484.761185 526.516699,484.882167 526.385634,485.013232 L523.640832,487.689981 L524.291116,491.470699 C524.296157,491.505986 524.298677,491.556395 524.298677,491.621928 C524.298677,491.727789 524.272212,491.817265 524.219282,491.890359 C524.166352,491.963453 524.089479,492 523.988658,492 C523.892881,492 523.792061,491.969755 523.686201,491.909263 L520.291116,490.124763 L516.89603,491.909263 C516.785129,491.969755 516.684311,492 516.593573,492 C516.487713,492 516.408318,491.963453 516.355388,491.890359 C516.302458,491.817265 516.275993,491.727789 516.275993,491.621928 C516.275993,491.591682 516.281033,491.541273 516.291116,491.470699 L516.941399,487.689981 L514.189036,485.013232 C514.063011,484.877125 514,484.756144 514,484.650283 C514,484.463767 514.141145,484.347826 514.42344,484.302457 L518.219281,483.750472 L519.920606,480.310018 C520.016385,480.103338 520.139887,480 520.291116,480 C520.442345,480 520.565848,480.103338 520.661627,480.310018 L522.362949,483.750472 L526.15879,484.302457 C526.441086,484.347826 526.582231,484.463767 526.582231,484.650283 Z" id="Page-1" stroke="none" fill="#D8D8D8" fill-rule="evenodd"></path>
</svg>