
<svg width="12px" height="12px" viewBox="453 481 12 12" version="1.1" xmlns="http://www.w3.org/2000/svg" xmlns:xlink="http://www.w3.org/1999/xlink">
    <!-- Generator: Sketch 40.3 (33839) - http://www.bohemiancoding.com/sketch -->
    <desc>Created with Sketch.</desc>
    <defs></defs>
    <path d="M460.740315,486.669893 C461.28431,486.071506 461.623879,485.22292 461.623879,484.281805 C461.623879,482.469427 460.757044,481.020479 458.811079,481.000205 C456.865115,480.97993 455.998279,482.469427 455.998279,484.281805 C455.998279,485.155701 456.291075,485.949815 456.768459,486.537904 L457.4536,487.713829 C457.4536,487.713829 457.550656,488.151497 457.28277,488.452869 C457.014885,488.75424 455.343084,489.892754 454.371999,490.093669 C453.400913,490.294583 453,491.129371 453,492 C454.473371,492 464.619543,491.933029 464.619543,491.933029 C464.619543,491.933029 464.652505,490.493012 463.581486,490.093669 C462.510466,489.694325 460.471892,488.598061 460.359205,488.452869 C460.246518,488.307677 460.056591,488.080471 460.2664,487.547316 C460.353608,487.325706 460.545653,486.988413 460.740315,486.669893 Z" id="Combined-Shape" stroke="none" fill="#D8D8D8" fill-rule="evenodd"></path>
</svg>