<?xml version="1.0" encoding="UTF-8" standalone="no"?>
<svg width="74px" height="44px" viewBox="0 0 74 44" version="1.1" xmlns="http://www.w3.org/2000/svg" xmlns:xlink="http://www.w3.org/1999/xlink">
    <!-- Generator: Sketch 44.1 (41455) - http://www.bohemiancoding.com/sketch -->
    <title>Page 1</title>
    <desc>Created with Sketch.</desc>
    <defs>
        <polygon id="path-1" points="73.78392 0.000155752212 73.78392 43.9049912 0.000111 43.9049912 0.000111 0.000155752212 73.78392 0.000155752212"></polygon>
    </defs>
    <g id="Page-1" stroke="none" stroke-width="1" fill="none" fill-rule="evenodd">
        <g>
            <mask id="mask-2" fill="white">
                <use xlink:href="#path-1"></use>
            </mask>
            <g id="Clip-2"></g>
            <path d="M37.036001,32.0757664 C42.368071,32.0757664 46.691151,27.6017841 46.691151,21.9908106 C46.691151,16.3790584 42.368071,11.8295363 37.036001,11.8295363 C31.703931,11.8295363 27.380851,16.3790584 27.380851,21.9908106 C27.452631,27.6017841 31.703931,32.0757664 37.036001,32.0757664 M37.036001,37.1564035 C29.038081,37.1564035 22.625241,30.331731 22.625241,21.9908106 C22.625241,13.6495009 29.110231,6.82482832 37.036001,6.82482832 C44.961771,6.82482832 51.447131,13.6495009 51.447131,21.9908106 C51.447131,30.331731 45.034291,37.1564035 37.036001,37.1564035 M36.891701,0.000155752212 C21.256241,0.000155752212 7.565871,8.79626195 0.000111,21.9908106 C7.565871,35.1845805 21.256241,43.9051469 36.891701,43.9051469 C52.527901,43.9051469 66.218271,35.1086513 73.784031,21.9908106 C66.218271,8.79626195 52.527901,0.000155752212 36.891701,0.000155752212" id="Fill-1" fill="#DCDCDC" opacity="0.72509058" mask="url(#mask-2)"></path>
        </g>
    </g>
</svg>