<svg width="12px" height="10px" viewBox="390 310 12 10" version="1.1" xmlns="http://www.w3.org/2000/svg" xmlns:xlink="http://www.w3.org/1999/xlink">
    <!-- Generator: Sketch 40.3 (33839) - http://www.bohemiancoding.com/sketch -->
    <desc>Created with Sketch.</desc>
    <defs></defs>
    <path d="M397.421623,314.999169 C397.943219,314.471568 398.268808,313.723366 398.268808,312.893581 C398.268808,311.2956 397.437663,310.018057 395.571819,310.00018 C393.705976,309.982304 392.874831,311.2956 392.874831,312.893581 C392.874831,313.6641 393.155571,314.364273 393.613299,314.882793 L394.270231,315.919611 C394.270231,315.919611 394.363292,316.305506 394.106436,316.571226 C393.84958,316.836947 392.246612,317.840779 391.315509,318.017926 C390.384406,318.195073 390,318.93111 390,319.698747 C391.412708,319.698747 401.14113,319.639698 401.14113,319.639698 C401.14113,319.639698 401.172735,318.370029 400.145813,318.017926 C399.118891,317.665824 397.164251,316.699243 397.056204,316.571226 C396.948156,316.44321 396.766049,316.242881 396.96722,315.772796 C397.050837,315.577402 397.234975,315.28001 397.421623,314.999169 Z" id="Combined-Shape" stroke="none" fill="#FFFFFF" fill-rule="evenodd"></path>
</svg>