
<svg width="159px" height="159px" viewBox="73 0 159 159" version="1.1" xmlns="http://www.w3.org/2000/svg" xmlns:xlink="http://www.w3.org/1999/xlink">
    <!-- Generator: Sketch 39.1 (31720) - http://www.bohemiancoding.com/sketch -->
    <desc>Created with Sketch.</desc>
    <defs></defs>
    <g id="Group-7" stroke="none" stroke-width="1" fill="none" fill-rule="evenodd" transform="translate(73.000000, 0.000000)">
        <path d="M158.859649,80.4104397 C158.859649,35.5610266 123.298622,0 78.4492094,0 C35.5610266,0 0,35.5610266 0,80.4104397 C0,123.298622 35.5610266,158.859649 78.4492094,158.859649 C123.298622,158.859649 158.859649,123.298622 158.859649,80.4104397 Z" id="Fill-" fill="#5077F2"></path>
        <path d="M40.1163342,84.776293 C39.7295408,84.3759811 39.6762142,83.6973723 40.0073341,83.2468238 L43.4199598,78.6033294 C43.7465541,78.1589389 44.3668026,78.071153 44.8035185,78.4058707 L65.8509016,94.5374828 C66.2884257,94.8728199 66.9821764,94.8621939 67.4141733,94.5023056 L118.969089,51.5528906 C119.394936,51.1981257 120.056009,51.2224697 120.458174,51.619646 L123.617462,54.7397486 C124.014013,55.1313815 124.01102,55.7681819 123.62683,56.1462816 L67.3500693,111.531021 C66.9586919,111.916195 66.3356634,111.911999 65.9410665,111.503611 L40.1163342,84.776293 Z" id="Fill-" fill="#FFFFFF"></path>
    </g>
</svg>