<svg width="20px" height="20px" viewBox="872 97 54 54" version="1.1" xmlns="http://www.w3.org/2000/svg" xmlns:xlink="http://www.w3.org/1999/xlink">
    <!-- Generator: Sketch 40.3 (33839) - http://www.bohemiancoding.com/sketch -->
    <desc>Created with Sketch.</desc>
    <defs></defs>
    <path d="M904.14786,97 C898.124482,97 892.976676,99.1361644 888.70428,103.40856 C884.431884,107.680956 882.29572,112.828762 882.29572,118.85214 C882.29572,123.965003 883.906599,128.552507 887.128405,132.614786 L872.735409,147.007782 C872.245134,147.428018 872,147.970814 872,148.636187 C872,149.30156 872.227624,149.861865 872.682879,150.317121 C873.138135,150.772376 873.69844,151 874.363813,151 C875.029186,151 875.571982,150.754866 875.992218,150.264591 L890.385214,135.871595 C894.447493,139.093401 899.034997,140.70428 904.14786,140.70428 C910.171238,140.70428 915.319044,138.568116 919.59144,134.29572 C923.863836,130.023324 926,124.875518 926,118.85214 C926,112.828762 923.863836,107.680956 919.59144,103.40856 C915.319044,99.1361644 910.171238,97 904.14786,97 L904.14786,97 Z M904.14786,137.342412 C899.034997,137.342412 894.675119,135.538932 891.068097,131.931903 C887.461068,128.324881 885.657588,123.965003 885.657588,118.85214 C885.657588,113.739277 887.461068,109.379399 891.068097,105.772377 C894.675119,102.165348 899.034997,100.361868 904.14786,100.361868 C909.260723,100.361868 913.620601,102.165348 917.227623,105.772377 C920.834652,109.379399 922.638132,113.739277 922.638132,118.85214 C922.638132,123.965003 920.834652,128.324881 917.227623,131.931903 C913.620601,135.538932 909.260723,137.342412 904.14786,137.342412 L904.14786,137.342412 Z" id="Page-1" stroke="none" fill="#FFFFFF" fill-rule="evenodd" transform="translate(899.000000, 124.000000) scale(-1, 1) translate(-899.000000, -124.000000) "></path>
</svg>