<svg width="18px" height="18px" viewBox="855 299 18 18" version="1.1" xmlns="http://www.w3.org/2000/svg" xmlns:xlink="http://www.w3.org/1999/xlink">
    <!-- Generator: Sketch 39.1 (31720) - http://www.bohemiancoding.com/sketch -->
    <desc>Created with Sketch.</desc>
    <defs></defs>
    <path d="M864,299 C861.524988,299 859.406258,299.881242 857.643749,301.643749 C855.881241,303.406258 855,305.524988 855,308 C855,310.475012 855.881241,312.593742 857.643749,314.356251 C859.406258,316.118759 861.524988,317 864,317 C866.475012,317 868.593742,316.118759 870.356251,314.356251 C872.118758,312.593742 873,310.475012 873,308 C873,305.524988 872.118758,303.406258 870.356251,301.643749 C868.593742,299.881242 866.475012,299 864,299 Z M868.1625,304.6625 L864.825,308.0375 L867.7875,311.3375 C868.062502,311.612502 868.062502,311.893748 867.7875,312.181251 C867.512498,312.468752 867.225002,312.462502 866.925,312.1625 L863.9625,308.8625 L860.6625,312.1625 C860.387498,312.462502 860.112502,312.462502 859.8375,312.1625 C859.712498,312.062499 859.65,311.925001 859.65,311.75 C859.65,311.574999 859.712498,311.437501 859.8375,311.3375 L863.175,307.9625 L860.2125,304.6625 C859.937498,304.387498 859.937498,304.106252 860.2125,303.818749 C860.487502,303.531248 860.774998,303.537498 861.075,303.8375 L864.0375,307.1375 L867.3375,303.8375 C867.612502,303.537498 867.893748,303.531248 868.181251,303.818749 C868.468752,304.106252 868.462502,304.387498 868.1625,304.6625 Z" id="Page-1" stroke="none" fill="#FF5A5A" fill-rule="evenodd"></path>
</svg>