<svg width="19px" height="22px" viewBox="4 2 19 22" version="1.1" xmlns="http://www.w3.org/2000/svg" xmlns:xlink="http://www.w3.org/1999/xlink">
    <!-- Generator: Sketch 39.1 (31720) - http://www.bohemiancoding.com/sketch -->
    <desc>Created with Sketch.</desc>
    <defs></defs>
    <path d="M13.7030021,21.625256 C8.76391843,21.625256 4.76,17.6213376 4.76,12.6822539 C4.76,10.3073079 5.68576328,8.14858541 7.19610947,6.54726693 L8.01323527,7.2329169 C6.65758244,8.64800194 5.82464311,10.5678562 5.82464311,12.6822539 C5.82464311,17.0333515 9.35190458,20.5606129 13.7030021,20.5606129 L13.7030021,20.3461291 C13.7030021,19.5169693 14.2381609,19.2585531 14.8983127,19.7536669 L15.4886922,20.1964515 C16.1510596,20.6932271 16.148844,21.4943036 15.4886922,21.9894175 L14.8983127,22.432202 C14.2359453,22.9289776 13.7030021,22.6620616 13.7030021,21.8397399 L13.7030021,21.625256 Z M13.7030021,3.73925182 C18.6420858,3.73925182 22.6460042,7.74317024 22.6460042,12.6822539 C22.6460042,15.2876471 21.5318662,17.6328195 19.754036,19.267325 L18.9306692,18.5764382 C20.5567046,17.1332166 21.5813611,15.027396 21.5813611,12.6822539 C21.5813611,8.3311564 18.0540996,4.80389492 13.7030021,4.80389492 L13.7030021,5.01837879 C13.7030021,5.84753852 13.1678433,6.1059548 12.5076915,5.61084092 L11.917312,5.16805635 C11.6321208,4.95416293 11.4701333,4.68385672 11.4308188,4.40584894 L11.0962592,4.1251201 C11.2144013,4.08917678 11.3335798,4.05561305 11.4537389,4.02448472 C11.5166684,3.78658536 11.6713074,3.55959384 11.917312,3.3750904 L12.5076915,2.93230582 C13.1700589,2.43553023 13.7030021,2.70244627 13.7030021,3.52476795 L13.7030021,3.73925182 Z" id="Oval-2" stroke="none" fill="#C9C9C9" fill-rule="evenodd"></path>
</svg>