<?xml version="1.0" encoding="UTF-8" standalone="no"?>
<svg width="46px" height="31px" viewBox="0 0 46 31" version="1.1" xmlns="http://www.w3.org/2000/svg" xmlns:xlink="http://www.w3.org/1999/xlink">
    <!-- Generator: Sketch 44.1 (41455) - http://www.bohemiancoding.com/sketch -->
    <title>Page 1</title>
    <desc>Created with Sketch.</desc>
    <defs></defs>
    <g id="TABS" stroke="none" stroke-width="1" fill="none" fill-rule="evenodd">
        <g id="11试用详情-首页" transform="translate(-43.000000, -6680.000000)" fill="#CCCCCC">
            <g id="Group-2" transform="translate(40.000000, 1884.000000)">
                <path d="M25.765625,4805.3 C27.444802,4805.3 28.8979084,4805.91353 30.125,4807.14062 C31.3520916,4808.36772 31.965625,4809.82082 31.965625,4811.5 C31.965625,4813.17918 31.3520916,4814.63228 30.125,4815.85938 C28.8979084,4817.08647 27.444802,4817.7 25.765625,4817.7 C24.086448,4817.7 22.6333416,4817.08647 21.40625,4815.85938 C20.1791584,4814.63228 19.565625,4813.17918 19.565625,4811.5 C19.565625,4809.82082 20.1791584,4808.36772 21.40625,4807.14062 C22.6333416,4805.91353 24.086448,4805.3 25.765625,4805.3 Z M25.765625,4821.86562 C28.6073082,4821.86562 31.0453032,4820.84845 33.0796844,4818.81407 C35.1140718,4816.77968 36.13125,4814.34168 36.13125,4811.5 C36.13125,4808.65832 35.1140718,4806.22032 33.0796844,4804.18593 C31.0453032,4802.15155 28.6073082,4801.13437 25.765625,4801.13437 C22.9239418,4801.13437 20.4859468,4802.15155 18.4515656,4804.18593 C16.4171782,4806.22032 15.4,4808.65832 15.4,4811.5 C15.4,4814.34168 16.4171782,4816.77968 18.4515656,4818.81407 C20.4859468,4820.84845 22.9239418,4821.86562 25.765625,4821.86562 Z M25.765625,4796 C30.8677352,4796 35.485396,4797.42082 39.61875,4800.2625 C43.752104,4803.10418 46.7229084,4806.84998 48.53125,4811.5 C46.7229084,4816.15002 43.752104,4819.89582 39.61875,4822.7375 C35.485396,4825.57918 30.8677352,4827 25.765625,4827 C20.6635148,4827 16.045854,4825.57918 11.9125,4822.7375 C7.779146,4819.89582 4.80834222,4816.15002 3,4811.5 C4.80834222,4806.84998 7.779146,4803.10418 11.9125,4800.2625 C16.045854,4797.42082 20.6635148,4796 25.765625,4796 Z" id="Page-1"></path>
            </g>
        </g>
    </g>
</svg>