<?xml version="1.0" encoding="utf-8"?>
<!-- Generator: Adobe Illustrator 19.0.0, SVG Export Plug-In . SVG Version: 6.00 Build 0)  -->
<svg width="16px" height="16px" version="1.1" id="图层_1" xmlns="http://www.w3.org/2000/svg" xmlns:xlink="http://www.w3.org/1999/xlink" x="0px" y="0px"
	 viewBox="-289 412.9 16 16" style="enable-background:new -289 412.9 16 16;" xml:space="preserve">
<style type="text/css">
	.st0{fill:#CCCCCC;}
</style>
<path class="st0" d="M-274.3,428.9h-13.4c-0.7,0-1.3-0.6-1.3-1.3v-13.4c0-0.7,0.6-1.3,1.3-1.3h13.4c0.7,0,1.3,0.6,1.3,1.3v13.4
	C-273,428.3-273.6,428.9-274.3,428.9z M-284.1,416.1l-0.6,0.5c0.4,0.5,0.8,0.9,1.2,1.4l0.6-0.5
	C-283.2,416.9-283.6,416.5-284.1,416.1z M-278.2,416.1c-0.3,0.5-0.7,1-1.2,1.4l0.6,0.5c0.5-0.5,0.9-1,1.3-1.5L-278.2,416.1z
	 M-276.1,420.5v-0.7h-5.9c0.3-0.4,0.5-0.8,0.7-1.2h4.7V418h-4.5c0.2-0.6,0.4-1.2,0.6-1.9l-0.8-0.2c-0.2,0.8-0.4,1.4-0.6,2.1h-3.5
	v0.7h3.2c-0.2,0.4-0.4,0.8-0.7,1.2h-2.9v0.7h2.3c-0.7,0.7-1.5,1.2-2.5,1.7c0.2,0.2,0.4,0.4,0.5,0.7c0.5-0.3,0.9-0.6,1.4-0.9v0.5h1.4
	c-0.1,0.6-0.3,1.1-0.6,1.5c-0.4,0.5-1.2,0.8-2.3,1.1c0.1,0.2,0.3,0.4,0.4,0.7c1.2-0.4,2-0.8,2.4-1.3c0.4-0.4,0.7-1.1,0.8-2h3
	c-0.1,0.7-0.1,1.2-0.2,1.5c-0.1,0.5-0.4,0.7-1,0.7c-0.5,0-1,0-1.6-0.1c0.1,0.3,0.2,0.6,0.2,0.8c0.8,0,1.3,0,1.6,0
	c0.9,0,1.4-0.4,1.6-1.4c0.1-0.6,0.2-1.4,0.3-2.2c0.5,0.3,1,0.6,1.6,0.8c0.2-0.3,0.4-0.5,0.6-0.8c-1.2-0.2-2.1-0.8-2.8-1.5
	C-278.9,420.5-276.1,420.5-276.1,420.5z M-282.5,420.5h2.8c0.4,0.5,0.8,1,1.3,1.4h-5.5C-283.4,421.5-282.9,421-282.5,420.5z"/>
</svg>
