<?xml version="1.0" standalone="no"?><!DOCTYPE svg PUBLIC "-//W3C//DTD SVG 1.1//EN"
        "http://www.w3.org/Graphics/SVG/1.1/DTD/svg11.dtd">
<svg t="1483779782242" class="icon" style="" viewBox="0 0 1024 1024" version="1.1" xmlns="http://www.w3.org/2000/svg"
     p-id="2148" xmlns:xlink="http://www.w3.org/1999/xlink" width="18" height="18">
    <defs>
        <style type="text/css"></style>
    </defs>
    <path d="M64.816215 750.578724" p-id="2149" fill="#cccccc"></path>
    <path d="M280.906761 334.714248c0 14.988366 12.684904 27.65485 27.658943 27.65485l406.876778 0c14.984273 0 27.659967-12.666484 27.659967-27.65485 0-14.984273-12.675694-27.668153-27.659967-27.668153l-406.876778 0C293.591665 307.046095 280.906761 319.729975 280.906761 334.714248L280.906761 334.714248 280.906761 334.714248 280.906761 334.714248zM714.290239 456.884728 308.565704 456.884728c-14.97404 0-27.658943 12.684904-27.658943 27.668153 0 14.988366 12.684904 27.653827 27.658943 27.653827l406.876778 0c14.984273 0 27.659967-12.665461 27.659967-27.653827C741.949182 468.407156 729.265302 456.884728 714.290239 456.884728L714.290239 456.884728 714.290239 456.884728 714.290239 456.884728zM714.290239 619.407242 308.565704 619.407242c-14.97404 0-27.658943 12.674671-27.658943 27.66406 0 14.97404 12.684904 27.658943 27.658943 27.658943l406.876778 0c14.984273 0 27.659967-12.684904 27.659967-27.658943C741.949182 630.93581 729.265302 619.407242 714.290239 619.407242L714.290239 619.407242 714.290239 619.407242 714.290239 619.407242zM418.060491 158.364821l189.034331 0c21.899776 0 40.334637-21.904892 40.334637-47.25628 0-25.359574-18.434861-47.25935-41.49609-47.25935L418.060491 63.84919c-23.046902 0-41.48688 21.890566-41.48688 47.25935C376.574634 136.459928 395.013589 158.364821 418.060491 158.364821L418.060491 158.364821 418.060491 158.364821 418.060491 158.364821zM794.340413 961.003224 229.659587 961.003224c-83.564207 0-137.563052-54.000891-137.563052-137.563052L92.096535 217.210044c0-83.250052 49.27424-132.951011 131.807978-132.951011l99.275028 0c12.94994 0 23.456225 10.505261 23.456225 23.456225 0 12.95608-10.506285 23.461341-23.456225 23.461341l-99.275028 0c-56.32789 0-84.895529 28.949332-84.895529 86.033445l0 606.230128c0 57.608046 33.037441 90.650603 90.650603 90.650603l564.68185 0c60.997236 0 90.645486-29.653367 90.645486-90.650603L884.986923 217.210044c0-53.876048-31.728632-86.033445-84.886319-86.033445l-85.442998 0c-12.950963 0-23.456225-10.504238-23.456225-23.461341 0-12.951987 10.505261-23.456225 23.456225-23.456225l85.442998 0c78.831416 0 131.802862 53.428863 131.802862 132.951011l0 606.230128C931.903465 910.863267 881.763508 961.003224 794.340413 961.003224L794.340413 961.003224zM794.340413 961.003224"
          p-id="2150" fill="#cccccc"></path>
</svg>