<svg width="23px" height="23px" viewBox="116 0 23 23" version="1.1" xmlns="http://www.w3.org/2000/svg" xmlns:xlink="http://www.w3.org/1999/xlink">
    <!-- Generator: Sketch 40.3 (33839) - http://www.bohemiancoding.com/sketch -->
    <desc>Created with Sketch.</desc>
    <defs></defs>
    <path d="M131.743589,13.9679552 L135.956989,9.86160656 L130.146352,9.0043913 L127.543958,3.72282605 L124.941563,9.0043913 L119.130924,9.86160656 L123.344326,13.9679552 L122.339168,19.7887393 L127.543958,17.0373485 L132.734976,19.7887393 L131.743589,13.9679552 Z M139,9.03204171 C139,9.23482684 138.880668,9.45604248 138.642,9.69569483 L133.643749,14.5901296 L134.827909,21.5031741 C134.837088,21.5676961 134.841677,21.6598691 134.841677,21.7796959 C134.841677,22.2405678 134.6535,22.4710003 134.277135,22.4710003 C134.102726,22.4710003 133.919135,22.4156965 133.726365,22.3050873 L127.543958,19.04213 L121.361547,22.3050873 C121.159598,22.4156965 120.97601,22.4710003 120.810777,22.4710003 C120.618007,22.4710003 120.473429,22.4041749 120.377044,22.2705221 C120.280659,22.1368693 120.232467,21.973262 120.232467,21.7796959 C120.232467,21.7243913 120.241646,21.6322184 120.260007,21.5031741 L121.444163,14.5901296 L116.432144,9.69569483 C116.202655,9.44682258 116.087912,9.22561004 116.087912,9.03204171 C116.087912,8.69099835 116.344936,8.47899951 116.858992,8.39604209 L123.771171,7.38673721 L126.869263,1.09586708 C127.043675,0.717953415 127.268571,0.528999678 127.543958,0.528999678 C127.819344,0.528999678 128.04424,0.717953415 128.218653,1.09586708 L131.316741,7.38673721 L138.22892,8.39604209 C138.742977,8.47899951 139,8.69099835 139,9.03204171 Z" id="Page-1" stroke="none" fill="#B3B3B3" fill-rule="evenodd"></path>
</svg>