<svg width="23px" height="23px" viewBox="87 0 23 23" version="1.1" xmlns="http://www.w3.org/2000/svg" xmlns:xlink="http://www.w3.org/1999/xlink">
    <!-- Generator: Sketch 40.3 (33839) - http://www.bohemiancoding.com/sketch -->
    <desc>Created with Sketch.</desc>
    <defs></defs>
    <path d="M109.978022,9.03275071 C109.978022,9.23547759 109.85869,9.45662968 109.620022,9.69621317 L104.621771,14.5892419 L105.805931,21.5003004 C105.81511,21.5648038 105.819699,21.6569503 105.819699,21.7767427 C105.819699,21.9702532 105.771506,22.1338134 105.675121,22.2674279 C105.578736,22.4010423 105.438752,22.4678485 105.255157,22.4678485 C105.080748,22.4678485 104.897157,22.4125606 104.704387,22.3019831 L98.5219796,19.0399633 L92.3395687,22.3019831 C92.1376198,22.4125606 91.9540318,22.4678485 91.7887986,22.4678485 C91.5960286,22.4678485 91.4514511,22.4010423 91.3550662,22.2674279 C91.2586812,22.1338134 91.2104887,21.9702532 91.2104887,21.7767427 C91.2104887,21.721454 91.2196676,21.6293075 91.2380286,21.5003004 L92.4221853,14.5892419 L87.410166,9.69621317 C87.180677,9.44741243 87.0659341,9.22626344 87.0659341,9.03275071 C87.0659341,8.69180533 87.3229581,8.47986739 87.837014,8.39693381 L94.7491934,7.38791889 L97.8472846,1.09885602 C98.0216967,0.721050926 98.246593,0.532151473 98.5219796,0.532151473 C98.7973661,0.532151473 99.0222624,0.721050926 99.1966745,1.09885602 L102.294763,7.38791889 L109.206942,8.39693381 C109.720999,8.47986739 109.978022,8.69180533 109.978022,9.03275071 Z" id="Page-1" stroke="none" fill="#F6A623" fill-rule="evenodd"></path>
</svg>