<svg width="16px" height="16px" viewBox="11 155 16 16" version="1.1" xmlns="http://www.w3.org/2000/svg" xmlns:xlink="http://www.w3.org/1999/xlink">
    <!-- Generator: Sketch 40.3 (33839) - http://www.bohemiancoding.com/sketch -->
    <desc>Created with Sketch.</desc>
    <defs></defs>
    <path d="M27,159 C26.7948702,161.435909 26.6474363,163.653836 26.5576911,165.653846 C26.4679483,167.653856 26.4358966,169.051278 26.4615385,169.846154 L26.5,171 L11.5,171 C11.6538469,168.538449 11.487182,164.538489 11,159 L15,159 C15,157.89743 15.3910228,156.955131 16.1730757,156.173076 C16.9551311,155.391023 17.8974302,155 19,155 C20.1025698,155 21.0448689,155.391023 21.8269243,156.173076 C22.6089772,156.955131 23,157.89743 23,159 L27,159 Z M16.8846154,156.884615 C16.2948677,157.474363 16,158.179483 16,159 L22,159 C22,158.179483 21.7051323,157.474363 21.1153846,156.884615 C20.5256369,156.294868 19.8205169,156 19,156 C18.1794831,156 17.4743631,156.294868 16.8846154,156.884615 Z M17,168.461538 L22.5,165.192308 L17,161.961538 L17,168.461538 Z" id="Page-1" stroke="none" fill="#CCCCCC" fill-rule="evenodd"></path>
</svg>
