
<svg width="21px" height="17px" viewBox="0 0 21 17" version="1.1" xmlns="http://www.w3.org/2000/svg" xmlns:xlink="http://www.w3.org/1999/xlink">
    <!-- Generator: Sketch 49 (51002) - http://www.bohemiancoding.com/sketch -->
    <desc>Created with Sketch.</desc>
    <defs></defs>
    <g id="Page-1" stroke="none" stroke-width="1" fill="none" fill-rule="evenodd">
        <g id="详情页-copy-2" transform="translate(-318.000000, -882.000000)" fill="#FFFFFF" fill-rule="nonzero">
            <g id="Group-19-Copy" transform="translate(305.000000, 874.000000)">
                <g id="微信-3" transform="translate(13.000000, 8.000000)">
                    <path d="M14.5384228,5.04062866 C14.7854283,5.04062866 15.0284066,5.0585259 15.2727273,5.08409338 C14.6149408,2.16684392 11.3407752,0 7.60213189,0 C3.42317435,0 0,2.71143124 0,6.15664916 C0,8.14452072 1.13837327,9.77700431 3.04192669,11.0451513 L2.28211623,13.2222222 L4.94011043,11.9540752 C5.89054472,12.1317692 6.65304002,12.3158551 7.60213189,12.3158551 C7.84108289,12.3158551 8.07734904,12.3056281 8.31093035,12.2890092 C8.163264,11.8045055 8.07600662,11.2982694 8.07600662,10.7703009 C8.07734904,7.60760364 10.9286519,5.04062866 14.5384228,5.04062866 Z M10.5857743,2.83333333 C11.1102229,2.83333333 11.4545455,3.2084413 11.4545455,3.77711033 C11.4545455,4.34310954 11.1102229,4.72222222 10.5857743,4.72222222 C10.0674524,4.72222222 9.54545455,4.34310954 9.54545455,3.77711033 C9.54545455,3.2071064 10.0662271,2.83333333 10.5857743,2.83333333 Z M4.86206294,4.72222222 C4.34195804,4.72222222 3.81818182,4.34310954 3.81818182,3.77711033 C3.81818182,3.2084413 4.34195804,2.83333333 4.86206294,2.83333333 C5.38216783,2.83333333 5.72727273,3.2071064 5.72727273,3.77711033 C5.72727273,4.34310954 5.38216783,4.72222222 4.86206294,4.72222222 Z M21,10.9663897 C21,8.04631842 18.0791524,5.66666667 14.798677,5.66666667 C11.3248534,5.66666667 8.59090909,8.04760821 8.59090909,10.9663897 C8.59090909,13.8941998 11.3261424,16.2661128 14.798677,16.2661128 C15.5256664,16.2661128 16.2591008,16.0842533 16.9886682,15.9011039 L18.9904672,17 L18.4413581,15.1736656 C19.9069379,14.07219 21,12.6134441 21,10.9663897 Z M12.3020321,10.3888889 C11.8812834,10.3888889 11.4545455,9.92167256 11.4545455,9.44444444 C11.4545455,8.97389085 11.8812834,8.5 12.3020321,8.5 C12.9458824,8.5 13.3636364,8.97389085 13.3636364,9.44444444 C13.3636364,9.92167256 12.9458824,10.3888889 12.3020321,10.3888889 Z M17.0722556,10.3888889 C16.6535163,10.3888889 16.2272727,9.92167256 16.2272727,9.44444444 C16.2272727,8.97389085 16.6520154,8.5 17.0722556,8.5 C17.7116209,8.5 18.1363636,8.97389085 18.1363636,9.44444444 C18.1363636,9.92167256 17.7116209,10.3888889 17.0722556,10.3888889 Z" id="Shape"></path>
                </g>
            </g>
        </g>
    </g>
</svg>