<svg width="13px" height="14px" viewBox="0 0 13 14" version="1.1" xmlns="http://www.w3.org/2000/svg" xmlns:xlink="http://www.w3.org/1999/xlink">
    <!-- Generator: Sketch 49 (51002) - http://www.bohemiancoding.com/sketch -->
    <desc>Created with Sketch.</desc>
    <defs></defs>
    <g id="Page-1" stroke="none" stroke-width="1" fill="none" fill-rule="evenodd">
        <g id="首页-copy-6" transform="translate(-334.000000, -455.000000)">
            <g id="Group-8" transform="translate(0.000000, 439.000000)">
                <g id="Group-5" transform="translate(335.000000, 17.000000)">
                    <path d="M1,3.711298 C2.28811476,2.76290067 3.67256112,2.76290067 5.15333906,3.711298 C6.64690567,4.70509653 7.92912599,4.79603322 9,3.98410808 C7.13897784,5.58692721 6.20846677,6.38833678 6.20846677,6.38833678 C6.20813351,8.81816361 6.20796688,10.033077 6.20796688,10.033077 L5.15333906,12 L4.12004207,12 L4.12004207,6.70926282 L1,3.711298 Z" id="Path-22" fill="#CBCBCC"></path>
                    <path d="M0.32,0 L10.68,0 C10.8567311,9.09347621e-16 11,0.14326888 11,0.32 L11,2.23301679 C11,2.32336895 10.961804,2.40951043 10.8948433,2.47017153 L6.63074478,6.33310429 C6.56378402,6.39376539 6.52558804,6.47990687 6.52558804,6.57025903 L6.52558804,10.4510101 C6.52558804,10.517302 6.50499974,10.5819576 6.46666784,10.6360435 L5.59565402,11.8650333 C5.53565611,11.9496897 5.43833569,12 5.33457422,12 L4.92049996,12 C4.74376884,12 4.60049996,11.8567311 4.60049996,11.68 L4.60049996,6.54771922 C4.60049996,6.45547371 4.56069247,6.36771535 4.49128725,6.30695228 L0.109212709,2.47052176 C0.0398074948,2.4097587 -1.67110039e-16,2.32200034 -5.55111512e-17,2.22975483 L0,0.32 C-2.164332e-17,0.14326888 0.14326888,3.24649801e-17 0.32,0 Z" id="Path-21" stroke="#808080"></path>
                </g>
            </g>
        </g>
    </g>
</svg>