<svg width="108px" height="59px" viewBox="0 0 108 59" version="1.1" xmlns="http://www.w3.org/2000/svg" xmlns:xlink="http://www.w3.org/1999/xlink">
    <!-- Generator: Sketch 49 (51002) - http://www.bohemiancoding.com/sketch -->
    <desc>Created with Sketch.</desc>
    <defs></defs>
    <g id="Page-1" stroke="none" stroke-width="1" fill="none" fill-rule="evenodd">
        <g id="我关注的人无数据" transform="translate(-141.000000, -164.000000)">
            <g id="Group-25" transform="translate(141.000000, 164.000000)">
                <g id="Group-21">
                    <path d="M25.6243995,30.7295278 C22.9822937,35.9524952 22.5175864,42.7756245 24.2302774,51.1989156" id="Path-10-Copy" stroke="#E5E5E5" stroke-width="0.6" stroke-linecap="round" transform="translate(24.422152, 40.964222) rotate(-128.000000) translate(-24.422152, -40.964222) "></path>
                    <path d="M107,31.3061224 C101.145872,40.1360544 93.5316398,44.5510204 84.1573034,44.5510204" id="Path-11-Copy-2" stroke="#E5E5E5" stroke-width="0.6" stroke-linecap="round"></path>
                    <g id="Group-21-Copy-2" transform="translate(0.000000, 42.142857)">
                        <path d="M9.5601546,0.148125221 C5.76375188,-0.604257819 2.68627107,1.37908368 0,9.11423309 C5.19747532,7.00776216 8.40014763,8.82854515 10.6640082,7.31147025 C12.9278689,5.79439534 13.3565573,0.900508262 9.5601546,0.148125221 Z" id="Path-13" fill="#DCDCDC"></path>
                        <path d="M11.3233339,1.01762368 C7.15226847,1.62655168 2.6721007,5.57626868 0,9.11423309 C5.19747532,7.00776216 8.40014763,8.82854515 10.6640082,7.31147025 C12.9278689,5.79439534 12.750819,2.13448162 11.3233339,1.01762368 Z" id="Path-13-Copy" fill="#EBEBEB"></path>
                    </g>
                    <g id="Group-21-Copy-3" transform="translate(79.210170, 45.454290) rotate(34.000000) translate(-79.210170, -45.454290) translate(75.603429, 42.444085)">
                        <path d="M5.21462978,0.0925782633 C3.14386466,-0.377661137 1.46523876,0.861927298 0,5.69639568 C2.83498654,4.37985135 4.58189871,5.51784072 5.81673177,4.5696689 C7.05156483,3.62149709 7.2853949,0.562817663 5.21462978,0.0925782633 Z" id="Path-13" fill="#DCDCDC"></path>
                        <path d="M6.17636394,0.636014799 C3.90123734,1.0165948 1.45750947,3.48516792 0,5.69639568 C2.83498654,4.37985135 4.58189871,5.51784072 5.81673177,4.5696689 C7.05156483,3.62149709 6.95499217,1.33405102 6.17636394,0.636014799 Z" id="Path-13-Copy" fill="#EBEBEB"></path>
                    </g>
                    <g id="Group-25-Copy" transform="translate(25.247191, 0.000000)">
                        <path d="M19.4485421,26.7660018 C25.9120984,28.1962431 31.4765807,28.8911626 34.2811393,26.0601913 C39.6106389,24.4405862 42.4759894,35.2920574 42.8771905,58.6146049 L13.4588656,58.6146049 C13.5833905,36.3556332 15.5799493,25.7394322 19.4485421,26.7660018 Z" id="Path-9" fill="#ECECEC"></path>
                        <g id="Group-24" fill="#D6D6D6">
                            <ellipse id="Oval-7" cx="27.5687718" cy="12.9512195" rx="13.0588919" ry="12.9512195"></ellipse>
                            <path d="M14.5276364,12.4530416 C12.6472738,17.9355747 8.14126122,21.5361804 1.00959858,23.254859 C7.87168069,32.3597799 19.3035248,39.1768769 26.3381243,37.7743902 C33.3727238,36.3719036 40.8373768,19.9466136 40.6274423,12.4530416 C35.7057968,12.4530416 27.0058615,12.4530416 14.5276364,12.4530416 Z" id="Path-15"></path>
                        </g>
                    </g>
                    <g id="Group-21-Copy-4" transform="translate(63.824713, 14.746279) scale(1, -1) rotate(58.000000) translate(-63.824713, -14.746279) translate(59.015724, 10.531993)">
                        <path d="M6.95283971,0.129609569 C4.19181955,-0.528725592 1.95365169,1.20669822 0,7.97495396 C3.77998205,6.13179189 6.10919828,7.72497701 7.75564236,6.39753647 C9.40208644,5.07009592 9.71385987,0.787944729 6.95283971,0.129609569 Z" id="Path-13" fill="#DCDCDC"></path>
                        <path d="M8.23515192,0.890420719 C5.20164979,1.42323272 1.94334596,4.87923509 0,7.97495396 C3.77998205,6.13179189 6.10919828,7.72497701 7.75564236,6.39753647 C9.40208644,5.07009592 9.2733229,1.86767142 8.23515192,0.890420719 Z" id="Path-13-Copy" fill="#EBEBEB"></path>
                    </g>
                    <path d="M90.7556806,29.3422719 C84.9321181,27.9086734 81.662197,25.9210491 80.9459175,23.3793992 C79.8714982,19.5669242 83.6005021,17.3286802 85.8507991,19.5669242 C88.101096,21.8051682 83.0513594,29.3422719 71.5197256,29.3422719" id="Path-14-Copy" stroke="#E5E5E5" stroke-width="0.6" stroke-linecap="round" transform="translate(81.137703, 24.008943) rotate(-11.000000) translate(-81.137703, -24.008943) "></path>
                </g>
            </g>
        </g>
    </g>
</svg>