<svg width="27px" height="27px" viewBox="0 0 27 27" version="1.1" xmlns="http://www.w3.org/2000/svg" xmlns:xlink="http://www.w3.org/1999/xlink">
    <!-- Generator: Sketch 46.1 (44463) - http://www.bohemiancoding.com/sketch -->
    <desc>Created with Sketch.</desc>
    <defs></defs>
    <g id="Page-1" stroke="none" stroke-width="1" fill="none" fill-rule="evenodd">
        <g id="03-评分模块---未选中" transform="translate(-887.000000, -603.000000)" stroke="#F2F2F2" fill="#F2F2F2">
            <g id="Group" transform="translate(801.000000, 434.000000)">
                <g id="Group-5" transform="translate(1.000000, 170.000000)">
                    <path d="M111,9.6880888 C111,9.91913557 110.869793,10.1711815 110.609376,10.4442335 L105.155649,16.0207929 L106.447718,23.8972904 C106.457733,23.9708046 106.462741,24.0758235 106.462741,24.2123502 C106.462741,24.4328932 106.410157,24.619302 106.304989,24.7715816 C106.19982,24.9238613 106.047079,25 105.846755,25 C105.656452,25 105.456131,24.9369887 105.245794,24.8109641 L98.5000017,21.093257 L91.7542056,24.8109641 C91.5338537,24.9369887 91.3335359,25 91.1532455,25 C90.9429089,25 90.7851565,24.9238613 90.6799883,24.7715816 C90.57482,24.619302 90.5222358,24.4328932 90.5222358,24.2123502 C90.5222358,24.1493381 90.5322512,24.0443192 90.5522854,23.8972904 L91.8443508,16.0207929 L86.3756008,10.4442335 C86.1251991,10.1606766 86,9.90863425 86,9.6880888 C86,9.29951512 86.2804459,9.05797055 86.8413462,8.96345158 L94.3834125,7.81348251 L97.7638238,0.645870234 C97.9541295,0.215287726 98.1995199,0 98.5000017,0 C98.8004834,0 99.0458738,0.215287726 99.2361796,0.645870234 L102.616587,7.81348251 L110.158654,8.96345158 C110.719556,9.05797055 111,9.29951512 111,9.6880888 Z" id="Page-1"></path>
                </g>
            </g>
        </g>
    </g>
</svg>