
<svg width="20px" height="18px" viewBox="657 473 20 18" version="1.1" xmlns="http://www.w3.org/2000/svg" xmlns:xlink="http://www.w3.org/1999/xlink">
    <!-- Generator: Sketch 40.3 (33839) - http://www.bohemiancoding.com/sketch -->
    <desc>Created with Sketch.</desc>
    <defs></defs>
    <path d="M657,490.939343 C657,490.825081 657.006348,490.679081 657.019044,490.501341 C657.031739,490.3236 657.099978,490.033188 657.223762,489.630097 C657.347546,489.227006 657.520523,488.914377 657.742699,488.692201 C657.958528,488.476373 658.377482,488.239918 658.999575,487.982827 C659.621668,487.725738 660.327861,487.45437 661.118172,487.168715 C661.908484,486.883061 662.490894,486.645019 662.86542,486.454581 C663.335163,486.226058 663.696988,485.878515 663.950903,485.411946 C664.20482,484.945377 664.331774,484.464531 664.331774,483.969395 C664.331774,483.620261 664.13182,483.22035 663.731904,482.769651 C663.497031,482.490344 663.293903,482.109475 663.122509,481.627037 C662.557547,481.392164 662.275068,480.919252 662.275068,480.208289 C662.275068,479.681414 662.367114,479.300547 662.551202,479.065675 C662.500418,478.710193 662.443288,478.186501 662.379809,477.49458 C662.367114,477.393014 662.352832,477.258123 662.336961,477.089904 C662.321092,476.921686 662.336961,476.634447 662.384569,476.228184 C662.43218,475.821917 662.532157,475.479138 662.684506,475.199831 C662.925726,474.774522 663.232008,474.480935 663.603358,474.319066 C663.974711,474.157193 664.277818,474.127041 664.512689,474.228607 C664.519036,474.228607 664.522212,474.225433 664.522212,474.219086 C664.534907,474.155607 664.563471,474.071498 664.607908,473.966758 C664.652342,473.862017 664.744385,473.722366 664.884039,473.547799 C665.023693,473.373232 665.185563,473.238341 665.369651,473.143125 C665.471217,473.09234 665.636258,473.052666 665.864784,473.024103 C666.093307,472.995537 666.371022,472.992363 666.69794,473.014579 C667.024856,473.036798 667.364462,473.085993 667.71677,473.162167 C668.069078,473.238341 668.421381,473.376406 668.773688,473.576365 C669.125996,473.776324 669.441799,474.0223 669.721107,474.314305 C670.000414,474.606307 670.230521,474.991934 670.411436,475.471201 C670.59235,475.950465 670.68598,476.494791 670.69233,477.104188 C670.698677,477.237494 670.698677,477.367622 670.69233,477.49458 C670.641545,478.078587 670.581242,478.602279 670.511415,479.065675 C670.695504,479.300547 670.787547,479.681414 670.787547,480.208289 C670.787547,480.919252 670.50507,481.392164 669.940108,481.627037 C669.768715,482.109475 669.565584,482.490344 669.330714,482.769651 C668.930795,483.22035 668.730841,483.620261 668.730841,483.969395 C668.730841,484.464531 668.857797,484.945377 669.111712,485.411946 C669.365627,485.878515 669.727452,486.226058 670.197195,486.454581 C670.571721,486.645019 671.154131,486.883061 671.944443,487.168715 C672.734756,487.45437 673.442534,487.725738 674.067802,487.982827 C674.69307,488.239918 675.11361,488.476373 675.329438,488.692201 C675.551616,488.914377 675.723004,489.212724 675.843616,489.587249 C675.964225,489.961775 676.030878,490.282338 676.043573,490.54895 L676.062615,490.939343 L657,490.939343 Z" id="Page-1" stroke="none" fill="#FF5B5B" fill-rule="evenodd"></path>
</svg>