<?xml version="1.0" encoding="UTF-8"?>
<svg width="26px" height="26px" viewBox="0 0 26 26" version="1.1" xmlns="http://www.w3.org/2000/svg" xmlns:xlink="http://www.w3.org/1999/xlink">
    <!-- Generator: Sketch 43.1 (39012) - http://www.bohemiancoding.com/sketch -->
    <title>Slice 2</title>
    <desc>Created with Sketch.</desc>
    <defs>
        <polygon id="path-1" points="21.93576 4.60176991e-05 21.93576 12.9719292 3.3e-05 12.9719292 3.3e-05 4.60176991e-05 21.93576 4.60176991e-05"></polygon>
    </defs>
    <g id="Page-1" stroke="none" stroke-width="1" fill="none" fill-rule="evenodd">
        <g transform="translate(2.000000, 6.000000)">
            <mask id="mask-2" fill="white">
                <use xlink:href="#path-1"></use>
            </mask>
            <g id="Clip-2"></g>
            <path d="M11.010703,9.47693097 C12.595913,9.47693097 13.881153,8.15507257 13.881153,6.49728496 C13.881153,4.83926726 12.595913,3.49509027 11.010703,3.49509027 C9.425493,3.49509027 8.140253,4.83926726 8.140253,6.49728496 C8.161593,8.15507257 9.425493,9.47693097 11.010703,9.47693097 M11.010703,10.9780283 C8.632943,10.9780283 6.726423,8.96164779 6.726423,6.49728496 C6.726423,4.03280708 8.654393,2.01642655 11.010703,2.01642655 C13.367013,2.01642655 15.295093,4.03280708 15.295093,6.49728496 C15.295093,8.96164779 13.388573,10.9780283 11.010703,10.9780283 M10.967803,4.60176991e-05 C6.319423,4.60176991e-05 2.249313,2.59889558 3.3e-05,6.49728496 C2.249313,10.3954442 6.319423,12.9719752 10.967803,12.9719752 C15.616403,12.9719752 19.686513,10.3730106 21.935793,6.49728496 C19.686513,2.59889558 15.616403,4.60176991e-05 10.967803,4.60176991e-05" id="Fill-1" fill="#CCCCCC" opacity="0.72509058" mask="url(#mask-2)"></path>
        </g>
    </g>
</svg>