
<svg width="214px" height="212px" viewBox="0 0 214 212" version="1.1" xmlns="http://www.w3.org/2000/svg" xmlns:xlink="http://www.w3.org/1999/xlink">
    <!-- Generator: Sketch 48.1 (47250) - http://www.bohemiancoding.com/sketch -->
    <desc>Created with Sketch.</desc>
    <defs>
        <linearGradient x1="69.7034328%" y1="9.24707536%" x2="6.9789797%" y2="97.6332534%" id="linearGradient-1">
            <stop stop-color="#FFFFFF" stop-opacity="0" offset="0%"></stop>
            <stop stop-color="#F0F618" offset="100%"></stop>
        </linearGradient>
    </defs>
    <g id="Page-1" stroke="none" stroke-width="1" fill="none" fill-rule="evenodd" opacity="0.314538043">
        <g id="红包开" transform="translate(-140.000000, -123.000000)" fill="url(#linearGradient-1)">
            <g id="Group-3" transform="translate(124.000000, 106.000000)">
                <g id="Group">
                    <path d="M127.955566,99.5976562 C131.026367,100.212891 133.771647,101.396322 136.191406,103.147949 C174.046224,55.0994466 192.973633,31.0751953 192.973633,31.0751953 L161.354492,21.8828125 L127.955566,99.5976562 Z" id="Path-6" opacity="0.530344203" transform="translate(160.464600, 62.515381) rotate(-1.000000) translate(-160.464600, -62.515381) "></path>
                    <path d="M89.2839668,89.6545742 C92.3547676,90.2698086 95.1000476,91.4532396 97.5198067,93.2048672 C135.374624,45.1563646 154.302033,21.1321133 154.302033,21.1321133 L122.682893,11.9397305 L89.2839668,89.6545742 Z" id="Path-6" opacity="0.530344203" transform="translate(121.793000, 52.572299) rotate(-33.000000) translate(-121.793000, -52.572299) "></path>
                    <path d="M53.7897039,99.2143765 C56.8605047,99.8296109 59.6057846,101.013042 62.0255437,102.764669 C99.8803614,54.7161669 118.80777,30.6919156 118.80777,30.6919156 L87.1886297,21.4995328 L53.7897039,99.2143765 Z" id="Path-6" opacity="0.530344203" transform="translate(86.298737, 62.132101) rotate(-61.000000) translate(-86.298737, -62.132101) "></path>
                    <path d="M28.1235352,124.591309 C31.1943359,125.206543 33.9396159,126.389974 36.359375,128.141602 C74.2141927,80.093099 93.1416016,56.0688477 93.1416016,56.0688477 L61.5224609,46.8764648 L28.1235352,124.591309 Z" id="Path-6-Copy" opacity="0.530344203" transform="translate(60.632568, 87.509033) rotate(-92.000000) translate(-60.632568, -87.509033) "></path>
                    <path d="M19.0632656,158.875275 C22.1340664,159.49051 24.8793463,160.673941 27.2991055,162.425568 C65.1539232,114.377066 84.081332,90.3528145 84.081332,90.3528145 L52.4621914,81.1604317 L19.0632656,158.875275 Z" id="Path-6-Copy-2" opacity="0.530344203" transform="translate(51.572299, 121.793000) rotate(-121.000000) translate(-51.572299, -121.793000) "></path>
                    <path d="M25.885419,189.865303 C28.9562197,190.480537 31.7014997,191.663968 34.1212588,193.415596 C71.9760765,145.367093 90.9034854,121.342842 90.9034854,121.342842 L59.2843447,112.150459 L25.885419,189.865303 Z" id="Path-6-Copy-3" opacity="0.530344203" transform="translate(58.394452, 152.783028) rotate(-147.000000) translate(-58.394452, -152.783028) "></path>
                    <path d="M43.5618862,212.742678 C46.632687,213.357912 49.3779669,214.541343 51.797726,216.292971 C89.6525437,168.244468 108.579953,144.220217 108.579953,144.220217 L76.960812,135.027834 L43.5618862,212.742678 Z" id="Path-6-Copy-4" opacity="0.530344203" transform="translate(76.070919, 175.660403) rotate(-170.000000) translate(-76.070919, -175.660403) "></path>
                    <path d="M73.9650488,228.771988 C77.0358496,229.387222 79.7811295,230.570653 82.2008887,232.322281 C120.055706,184.273778 138.983115,160.249527 138.983115,160.249527 L107.363975,151.057144 L73.9650488,228.771988 Z" id="Path-6-Copy-5" opacity="0.530344203" transform="translate(106.474082, 191.689713) rotate(-198.000000) translate(-106.474082, -191.689713) "></path>
                    <path d="M106.101762,228.893571 C109.172563,229.508805 111.917843,230.692236 114.337602,232.443864 C152.19242,184.395361 171.119828,160.37111 171.119828,160.37111 L139.500688,151.178727 L106.101762,228.893571 Z" id="Path-6-Copy-6" opacity="0.530344203" transform="translate(138.610795, 191.811296) rotate(-224.000000) translate(-138.610795, -191.811296) "></path>
                    <path d="M132.595734,216.883408 C135.666535,217.498642 138.411815,218.682073 140.831574,220.4337 C178.686392,172.385198 197.613801,148.360947 197.613801,148.360947 L165.99466,139.168564 L132.595734,216.883408 Z" id="Path-6-Copy-7" opacity="0.530344203" transform="translate(165.104768, 179.801132) rotate(-247.000000) translate(-165.104768, -179.801132) "></path>
                    <path d="M152.684707,194.295493 C155.755508,194.910728 158.500788,196.094159 160.920547,197.845786 C198.775365,149.797284 217.702774,125.773032 217.702774,125.773032 L186.083633,116.58065 L152.684707,194.295493 Z" id="Path-6-Copy-8" opacity="0.530344203" transform="translate(185.193741, 157.213218) rotate(-272.000000) translate(-185.193741, -157.213218) "></path>
                    <path d="M162.063266,161.875275 C165.134066,162.49051 167.879346,163.673941 170.299105,165.425568 C208.153923,117.377066 227.081332,93.3528145 227.081332,93.3528145 L195.462191,84.1604317 L162.063266,161.875275 Z" id="Path-6-Copy-9" opacity="0.530344203" transform="translate(194.572299, 124.793000) rotate(-301.000000) translate(-194.572299, -124.793000) "></path>
                    <path d="M156.124342,131.115736 C159.195142,131.73097 161.940422,132.914401 164.360181,134.666029 C202.214999,86.6175259 221.142408,62.5932746 221.142408,62.5932746 L189.523267,53.4008918 L156.124342,131.115736 Z" id="Path-6-Copy-10" opacity="0.530344203" transform="translate(188.633375, 94.033460) rotate(-326.000000) translate(-188.633375, -94.033460) "></path>
                </g>
            </g>
        </g>
    </g>
</svg>