
<svg width="19px" height="18px" viewBox="431 473 19 18" version="1.1" xmlns="http://www.w3.org/2000/svg" xmlns:xlink="http://www.w3.org/1999/xlink">
    <!-- Generator: Sketch 40.3 (33839) - http://www.bohemiancoding.com/sketch -->
    <desc>Created with Sketch.</desc>
    <defs></defs>
    <path d="M431,490.876299 C431,490.764479 431.006212,490.620047 431.018637,490.442998 C431.031061,490.26595 431.099395,489.978639 431.223639,489.581056 C431.347884,489.183474 431.518717,488.872867 431.736145,488.649227 C431.947361,488.431799 432.363574,488.194186 432.984796,487.936377 C433.606019,487.678571 434.311096,487.40679 435.100049,487.121026 C435.889002,486.835264 436.469836,486.599204 436.84257,486.412836 C437.252578,486.20162 437.583373,485.900332 437.834967,485.508962 C438.086564,485.117593 438.237207,484.704484 438.286906,484.26963 L436.740068,484.26963 C436.715219,484.15781 436.68416,484.007165 436.646887,483.817693 C436.609611,483.628219 436.547491,483.250833 436.460518,482.685519 C436.373549,482.120207 436.299002,481.570432 436.236879,481.036181 C436.174759,480.501931 436.129721,479.890036 436.101766,479.200478 C436.07381,478.510921 436.078469,477.891261 436.115742,477.341479 C436.153015,476.791696 436.24775,476.274535 436.399951,475.789982 C436.55215,475.305428 436.76181,474.945125 437.028936,474.70906 C437.265001,474.466783 437.53057,474.303716 437.825649,474.21985 C438.120731,474.135986 438.336603,474.137539 438.47327,474.224509 C438.485696,474.224509 438.495013,474.221403 438.501225,474.215191 C438.501225,474.196553 438.516757,474.146856 438.547816,474.066098 C438.709335,473.637456 438.973351,473.333061 439.339873,473.152904 C439.563512,473.034873 439.957982,472.985176 440.523297,473.003812 C440.548144,473.003812 440.591629,473.005367 440.653752,473.008473 C440.715874,473.011579 440.759359,473.013132 440.784206,473.013132 L440.812162,473.013132 C441.128985,473.037979 441.486185,473.106313 441.883766,473.218133 C442.225439,473.317529 442.542257,473.444878 442.834233,473.600182 C443.126207,473.755489 443.422837,473.977573 443.724128,474.266441 C444.025422,474.555311 444.278567,474.890764 444.483571,475.272816 C444.688574,475.654868 444.846982,476.134756 444.958802,476.712493 C445.070624,477.290231 445.107897,477.93008 445.070624,478.632063 C445.027136,479.483137 444.968122,480.259654 444.893575,480.961635 C444.819029,481.663616 444.747589,482.210285 444.679254,482.601655 C444.61092,482.993024 444.54414,483.322268 444.478912,483.589392 C444.413683,483.856519 444.362433,484.036671 444.32516,484.129855 L444.259932,484.26963 L442.713094,484.26963 C442.762793,484.710698 442.911883,485.125357 443.160372,485.513621 C443.40886,485.901884 443.738105,486.20162 444.148112,486.412836 C444.520846,486.599204 445.10168,486.835264 445.890633,487.121026 C446.679584,487.40679 447.386214,487.678571 448.010543,487.936377 C448.634872,488.194186 449.052639,488.431799 449.263854,488.649227 C449.481281,488.872867 449.652115,489.169496 449.776361,489.539124 C449.900604,489.908751 449.968939,490.224017 449.981362,490.48493 L450,490.876299 L431,490.876299 Z" id="Page-1" stroke="none" fill="#B3B3B3" fill-rule="evenodd"></path>
</svg>