<svg width="351px" height="297px" viewBox="0 0 351 297" version="1.1" xmlns="http://www.w3.org/2000/svg" xmlns:xlink="http://www.w3.org/1999/xlink">
    <!-- Generator: Sketch 48.1 (47250) - http://www.bohemiancoding.com/sketch -->
    <desc>Created with Sketch.</desc>
    <defs></defs>
    <g id="Page-1" stroke="none" stroke-width="1" fill="none" fill-rule="evenodd">
        <g id="样式C" transform="translate(-12.000000, -85.000000)">
            <g id="Group-2" transform="translate(12.000000, 85.000000)">
                <path d="M350.849066,141.91856 C350.947003,142.215044 351,142.532408 351,142.862827 L351,224.000561 C351,225.657105 349.65834,227 347.992109,227 L3.00789073,227 C1.34667855,227 0,225.666161 0,224.000561 L0,142.862827 C0,142.533945 0.0528830966,142.217426 0.150690073,141.921324 C2.56094595,114.607611 33.5838735,93 71.5,93 C108.458701,93 138.867931,113.530155 142.612343,139.863388 L208.387657,139.863388 C212.132069,113.530155 242.541299,93 279.5,93 C317.414848,93 348.436962,114.606154 350.849066,141.91856 Z" id="Combined-Shape" fill="#B23333"></path>
                <path d="M157.329379,2.56799693e-06 C160.754978,6.53869375 167.606492,11 175.5,11 C183.393508,11 190.245022,6.53869375 193.670621,2.56799693e-06 L319,-1.77635684e-15 C327.836556,-3.39960584e-15 335,7.163444 335,16 L335,269 C335,277.836556 327.836556,285 319,285 L32,285 C23.163444,285 16,277.836556 16,269 L16,16 C16,7.163444 23.163444,-1.53107837e-16 32,-1.77635684e-15 L157.329368,-7.75713171e-16 Z" id="Combined-Shape" fill="#FCF3DC"></path>
                <path d="M351,276 L0,276 L0,189.886186 C-1.06642499e-16,189.015384 0.55652504,188.274566 1.33330532,188 C52.4354173,202.160865 111.958749,210.280463 175.5,210.280463 C239.041251,210.280463 298.564583,202.160865 349.666695,188 C350.443475,188.274566 351,189.015384 351,189.886186 L351,276 Z" id="Combined-Shape" fill="#F0F71F" opacity="0.476732337"></path>
                <path d="M-2.13162821e-14,196 C51.3988827,209.831485 111.405335,217.772372 175.5,217.772372 C239.594665,217.772372 299.601117,209.831485 351,196 L351,244.863183 L351,273 C351,286.254834 340.254834,297 327,297 L24,297 C10.745166,297 1.10031584e-11,286.254834 1.09956488e-11,273 L1.09994387e-11,244.863183 L1.09992015e-11,196 Z" id="Combined-Shape" fill="#D64141"></path>
            </g>
        </g>
    </g>
</svg>