
<svg width="22px" height="18px" viewBox="0 0 22 18" version="1.1" xmlns="http://www.w3.org/2000/svg" xmlns:xlink="http://www.w3.org/1999/xlink">
    <!-- Generator: Sketch 49 (51002) - http://www.bohemiancoding.com/sketch -->
    <desc>Created with Sketch.</desc>
    <defs></defs>
    <g id="Page-1" stroke="none" stroke-width="1" fill="none" fill-rule="evenodd" stroke-linecap="round" stroke-linejoin="round">
        <g id="我的-copy-7" transform="translate(-190.000000, -389.000000)" fill-rule="nonzero" stroke="#FFA239" stroke-width="0.8">
            <g id="Group-35" transform="translate(0.000000, 318.000000)">
                <g id="Group-18" transform="translate(12.000000, 24.000000)">
                    <g id="Group-30" transform="translate(172.000000, 48.000000)">
                        <g id="物流-卡车2" transform="translate(7.000000, 0.000000)">
                            <path d="M19.8,6.85333333 C19.7866667,6.82666667 19.7866667,6.8 19.7733333,6.78666667 L15.8533333,2.86666667 C15.6933333,2.70666667 15.4933333,2.65333333 15.2933333,2.66666667 L12,2.66666667 C12,1.2 10.8,0 9.33333333,0 L2.66666667,0 C1.2,0 0,1.2 0,2.66666667 L0,12.6666667 C0,13.04 0.293333333,13.3333333 0.666666667,13.3333333 L1.33333333,13.3333333 C1.33333333,14.8 2.53333333,16 4,16 C5.46666667,16 6.66666667,14.8 6.66666667,13.3333333 L13.3333333,13.3333333 C13.3333333,14.8 14.5333333,16 16,16 C17.4666667,16 18.6666667,14.8 18.6666667,13.3333333 L19.3333333,13.3333333 C19.7066667,13.3333333 20,13.04 20,12.6666667 L20,7.33333333 C20,7.14666667 19.92,6.97333333 19.8,6.85333333 Z M4,14.6666667 C3.26666667,14.6666667 2.66666667,14.0666667 2.66666667,13.3333333 C2.66666667,12.6 3.26666667,12 4,12 C4.73333333,12 5.33333333,12.6 5.33333333,13.3333333 C5.33333333,14.0666667 4.73333333,14.6666667 4,14.6666667 Z M16,14.6666667 C15.2666667,14.6666667 14.6666667,14.0666667 14.6666667,13.3333333 C14.6666667,12.6 15.2666667,12 16,12 C16.7333333,12 17.3333333,12.6 17.3333333,13.3333333 C17.3333333,14.0666667 16.7333333,14.6666667 16,14.6666667 Z M12,8 L12,4 L14.6666667,4 L18.6666667,8 L12,8 Z" id="Shape"></path>
                        </g>
                    </g>
                </g>
            </g>
        </g>
    </g>
</svg>