
<svg width="19px" height="18px" viewBox="0 0 19 18" version="1.1" xmlns="http://www.w3.org/2000/svg" xmlns:xlink="http://www.w3.org/1999/xlink">
    <!-- Generator: Sketch 49 (51002) - http://www.bohemiancoding.com/sketch -->
    <desc>Created with Sketch.</desc>
    <defs></defs>
    <g id="Page-1" stroke="none" stroke-width="1" fill="none" fill-rule="evenodd">
        <g id="我的-copy-7" transform="translate(-124.000000, -389.000000)" stroke="#FFA239" stroke-width="0.8">
            <g id="Group-35" transform="translate(0.000000, 318.000000)">
                <g id="Group-18" transform="translate(12.000000, 24.000000)">
                    <g id="Group-29" transform="translate(104.000000, 47.000000)">
                        <g id="Group-14" transform="translate(8.000000, 0.000000)">
                            <path d="M7.70141602,13.8536318 L7.70141602,16.9774521 C7.70141602,17.0910195 7.7934806,17.1830841 7.90704802,17.1830841 C7.97667976,17.1830841 8.04158115,17.1478455 8.07950538,17.0894475 L9.74216834,14.529178 C9.8040217,14.4339324 9.77695197,14.3065786 9.6817064,14.2447252 C9.66736424,14.2354113 9.65191625,14.2279228 9.63572022,14.2224332 L7.97305726,13.6588825 C7.86550018,13.6224266 7.7487546,13.6800654 7.71229869,13.7876225 C7.70509222,13.808884 7.70141602,13.8311822 7.70141602,13.8536318 Z" id="Path-58"></path>
                            <path d="M1.15088145,10.2221928 L6.08244758,11.8601199 C6.26124346,11.9195036 6.45819949,11.8763276 6.59575705,11.7475942 L11.8915569,6.79151104 C11.9744768,6.71391039 12.1046043,6.71822243 12.182205,6.80114225 C12.251068,6.87472552 12.2564548,6.98737253 12.1949276,7.06719114 L8.48161957,11.8844237 C8.30828434,12.1092895 8.35005815,12.4320952 8.57492398,12.6054305 C8.62020962,12.6403384 8.67100162,12.6674468 8.72520845,12.6856394 L14.0994333,14.4893084 C14.3685973,14.5796438 14.6600291,14.4346746 14.7503645,14.1655106 C14.7553523,14.1506491 14.7596576,14.1355673 14.7632671,14.1203124 L17.7409559,1.5355469 C17.806329,1.25925703 17.6353472,0.98228445 17.3590573,0.91691134 C17.2387868,0.888454076 17.1122899,0.904278076 17.0027355,0.961485029 L1.07496656,9.27862469 C0.823294057,9.41004268 0.72580851,9.72059889 0.857226501,9.9722714 C0.918976004,10.090525 1.02427668,10.1801435 1.15088145,10.2221928 Z" id="Path-3" stroke-linecap="round" stroke-linejoin="round"></path>
                        </g>
                    </g>
                </g>
            </g>
        </g>
    </g>
</svg>