<svg width="93px" height="93px" viewBox="674 281 93 93" version="1.1" xmlns="http://www.w3.org/2000/svg" xmlns:xlink="http://www.w3.org/1999/xlink">
    <!-- Generator: Sketch 40.3 (33839) - http://www.bohemiancoding.com/sketch -->
    <desc>Created with Sketch.</desc>
    <defs></defs>
    <g id="大图标/完成" stroke="none" stroke-width="1" fill="none" fill-rule="evenodd" transform="translate(674.000000, 281.000000)">
        <path d="M88.78,46.5281481 C88.78,22.3727644 69.6272356,3.22 45.4718519,3.22 C22.3727644,3.22 3.22,22.3727644 3.22,46.5281481 C3.22,69.6272356 22.3727644,88.78 45.4718519,88.78 C69.6272356,88.78 88.78,69.6272356 88.78,46.5281481 Z" id="Fill-" fill="#09BB07"></path>
        <path d="M25.1463773,49.2109134 C24.7612264,48.8123014 24.7138674,48.1287624 25.0355384,47.6910709 L26.3374531,45.9195806 C26.6613893,45.4788068 27.2756459,45.3910119 27.7237609,45.7344664 L38.3134512,53.8508566 C38.7551516,54.1893947 39.4543057,54.1796824 39.8781336,53.8265995 L66.9457716,31.2770678 C67.3682214,30.9251329 68.0342466,30.959382 68.4265548,31.3468243 L69.4698061,32.3771358 C69.8651703,32.7675961 69.8680107,33.3967571 69.4782824,33.780308 L39.8197035,62.9687798 C39.4290206,63.35327 38.8060455,63.3479929 38.4149323,62.9432101 L25.1463773,49.2109134 Z" id="Fill-" fill="#FFFFFF"></path>
    </g>
</svg>