<svg width="12px" height="12px" viewBox="470 309 12 12" version="1.1" xmlns="http://www.w3.org/2000/svg" xmlns:xlink="http://www.w3.org/1999/xlink">
    <!-- Generator: Sketch 40.3 (33839) - http://www.bohemiancoding.com/sketch -->
    <desc>Created with Sketch.</desc>
    <defs></defs>
    <path d="M482,313.435095 C482,313.540866 481.937501,313.656249 481.812501,313.78125 L479.194712,316.334134 L479.814905,319.939904 C479.819712,319.973558 479.822116,320.021634 479.822116,320.084135 C479.822116,320.185097 479.796875,320.270432 479.746395,320.340144 C479.695914,320.409856 479.622598,320.444712 479.526442,320.444712 C479.435097,320.444712 479.338943,320.415866 479.237981,320.358173 L476.000001,318.65625 L472.762019,320.358173 C472.65625,320.415866 472.560097,320.444712 472.473558,320.444712 C472.372596,320.444712 472.296875,320.409856 472.246394,320.340144 C472.195914,320.270432 472.170673,320.185097 472.170673,320.084135 C472.170673,320.055288 472.175481,320.007212 472.185097,319.939904 L472.805288,316.334134 L470.180288,313.78125 C470.060096,313.65144 470,313.536058 470,313.435095 C470,313.257211 470.134614,313.146634 470.403846,313.103365 L474.024038,312.576922 L475.646635,309.295672 C475.737982,309.098556 475.85577,309 476.000001,309 C476.144232,309 476.262019,309.098556 476.353366,309.295672 L477.975962,312.576922 L481.596154,313.103365 C481.865387,313.146634 482,313.257211 482,313.435095 Z" id="Page-1" stroke="none" fill="#FFFFFF" fill-rule="evenodd"></path>
</svg>