<svg width="31px" height="30px" viewBox="0 0 31 30" version="1.1" xmlns="http://www.w3.org/2000/svg" xmlns:xlink="http://www.w3.org/1999/xlink">
    <!-- Generator: Sketch 48.1 (47250) - http://www.bohemiancoding.com/sketch -->
    <desc>Created with Sketch.</desc>
    <defs></defs>
    <g id="Page-1" stroke="none" stroke-width="1" fill="none" fill-rule="evenodd">
        <g id="小程序首页改版" transform="translate(-38.000000, -338.000000)">
            <g id="分类" transform="translate(29.000000, 337.000000)">
                <g id="Group-7" transform="translate(9.000000, 1.000000)">
                    <rect id="Rectangle-19" fill="#EFEFEF" x="3.60465116" y="5.12195122" width="27.3953488" height="24.8780488"></rect>
                    <polygon id="Path-18" fill="#333333" fill-rule="nonzero" points="0.72093023 1.46341465 0 1.46341466 0 2.19512197 0 27.2024649 0 27.9341722 0.720930233 27.9341722 27.8387884 27.9341722 28.5597187 27.9341722 28.5597186 27.2024648 28.5597184 2.19512194 28.5597184 1.46341463 27.8387881 1.46341463 23.821756 1.46341463 23.0742639 1.46341463 23.0742639 2.92682927 23.821756 2.92682927 27.8387881 2.92682927 27.1178579 2.19512196 27.1178582 27.2024649 27.8387884 26.4707575 0.720930233 26.4707575 1.44186047 27.2024649 1.44186047 2.19512197 0.720930235 2.92682929 5.7850977 2.92682927 5.7850977 1.46341463"></polygon>
                    <rect id="Rectangle-17" fill="#333333" x="1.44186047" y="9.51219512" width="25.9534884" height="1.46341463"></rect>
                    <rect id="Rectangle-17" fill="#333333" x="10.0930233" y="1.46341463" width="8.65116279" height="1.46341463"></rect>
                    <rect id="Rectangle-17" fill="#333333" x="7.20930233" y="0" width="1.44186047" height="4.3902439"></rect>
                    <rect id="Rectangle-17" fill="#333333" x="20.1860465" y="0" width="1.44186047" height="4.3902439"></rect>
                    <path d="M4.93116279,15.6819512 L4.93116279,21.9512195 L5.94334884,21.9512195 L5.94334884,17.3678049 L5.97795349,17.3678049 L9.0664186,21.9512195 L10.0526512,21.9512195 L10.0526512,15.6819512 L9.03181395,15.6819512 L9.03181395,20.2039024 L8.9972093,20.2039024 L5.94334884,15.6819512 L4.93116279,15.6819512 Z M11.263814,15.6819512 L11.263814,21.9512195 L15.8662326,21.9512195 L15.8662326,21.0731707 L12.276,21.0731707 L12.276,19.1765854 L15.5115349,19.1765854 L15.5115349,18.2985366 L12.276,18.2985366 L12.276,16.56 L15.7191628,16.56 L15.7191628,15.6819512 L11.263814,15.6819512 Z M16.2555349,15.6819512 L18.0290233,21.9512195 L19.1104186,21.9512195 L20.3215814,17.2360976 L20.356186,17.2360976 L21.5586977,21.9512195 L22.6314419,21.9512195 L24.4135814,15.6819512 L23.2716279,15.6819512 L22.1123721,20.4497561 L22.0777674,20.4497561 L20.8579535,15.6819512 L19.8111628,15.6819512 L18.5913488,20.4497561 L18.5567442,20.4497561 L17.3974884,15.6819512 L16.2555349,15.6819512 Z" id="NEW" fill="#333333"></path>
                </g>
            </g>
        </g>
    </g>
</svg>