<svg width="25px" height="32px" viewBox="0 0 25 32" version="1.1" xmlns="http://www.w3.org/2000/svg" xmlns:xlink="http://www.w3.org/1999/xlink">
    <!-- Generator: Sketch 48.1 (47250) - http://www.bohemiancoding.com/sketch -->
    <desc>Created with Sketch.</desc>
    <defs></defs>
    <g id="Page-1" stroke="none" stroke-width="1" fill="none" fill-rule="evenodd">
        <g id="小程序首页改版" transform="translate(-222.000000, -338.000000)">
            <g id="分类" transform="translate(29.000000, 337.000000)">
                <g id="Group" transform="translate(193.000000, 1.000000)">
                    <path d="M13.9948134,3.31034483 C13.9948134,3.31034483 10.0578697,5.59253105 7.80818767,5.59253105 C5.55939811,5.59253105 3.30882353,4.44438022 3.30882353,4.44438022 L3.30882353,23.5749948 L13.9948134,32 L24.6808032,23.5749948 L24.6808032,4.44438022 C24.6808032,4.44438022 22.4311211,5.59253105 20.1814391,5.59253105 C18.0020595,5.59253105 13.9948134,3.31034483 13.9948134,3.31034483 Z" id="Fill-1" fill="#E8E8E8"></path>
                    <path d="M11.0725002,0.543206214 C10.9337689,0.620242017 10.7749933,0.706330563 10.5990203,0.799190733 C10.0955719,1.06485819 9.5569366,1.33060679 9.00632612,1.57811635 C8.45569437,1.82563547 7.92329096,2.0410281 7.42183652,2.21491814 C6.55382234,2.51592061 5.81687713,2.67854428 5.27055636,2.67854428 C4.34818346,2.67780264 3.34406867,2.47315549 2.33504692,2.13091631 C1.97757864,2.00967051 1.64560575,1.87975997 1.34860586,1.75026159 C1.17322735,1.67379277 1.05084284,1.61569067 0.990691843,1.58509581 L7.56315426e-17,1.08119598 L0,2.19044116 L0,21.6452501 L0,21.9749067 L0.259577326,22.17895 L11.1592313,30.7467283 L11.5808824,31.0781712 L12.0025334,30.7467283 L22.9021874,22.17895 L23.1617647,21.9749067 L23.1617647,21.6452501 L23.1617647,2.19044116 L23.1617647,1.08099606 L22.1709754,1.58514537 C22.1108631,1.61573268 21.9885357,1.67382765 21.813222,1.7502899 C21.5163233,1.87978082 21.1844382,2.00968477 20.8270332,2.13092513 C19.8162737,2.47379906 18.8103248,2.67854428 17.8912083,2.67854428 C17.3433629,2.67854428 16.5775709,2.5020895 15.6651011,2.17748924 C15.194543,2.01009379 14.6961911,1.80751125 14.1807219,1.57739636 C13.6255611,1.3295624 13.0804664,1.06346634 12.5694773,0.797434226 C12.3908332,0.704428191 12.2294295,0.618192666 12.0882167,0.541008644 C12.0044568,0.49522717 11.9467047,0.463018691 11.9178949,0.446660116 L11.5778799,0.253595256 L11.2393543,0.449246891 C11.2112749,0.465475458 11.1547134,0.497554285 11.0725002,0.543206214 Z M11.2438698,1.62771586 C11.2789251,1.64762074 11.3430911,1.68340623 11.4334898,1.73281632 C11.5825414,1.81428491 11.752018,1.90483372 11.939058,2.00221081 C12.4728805,2.28013048 13.0420648,2.55798621 13.6241519,2.81784059 C14.1702054,3.06160886 14.700866,3.27732505 15.2074291,3.45752885 C16.2540966,3.82986837 17.1554251,4.03755364 17.8912083,4.03755364 C18.9799229,4.03755364 20.1252215,3.80444593 21.2657095,3.41756499 C21.6612411,3.28339114 22.0285114,3.13963701 22.35906,2.99546985 C22.5602145,2.90773726 22.706793,2.83812513 22.7900972,2.79573694 L21.799308,2.19044116 L21.799308,21.6452501 L22.0588853,21.1115502 L11.1592313,29.6793285 L12.0025334,29.6793285 L1.10287942,21.1115502 L1.36245675,21.6452501 L1.36245675,2.19044116 L0.371764904,2.79578651 C0.4550873,2.83816713 0.601701191,2.90777214 0.802897674,2.99549816 C1.13352277,3.13965786 1.50085468,3.2834054 1.89642259,3.41757381 C3.03484162,3.80370185 4.17794074,4.03667519 5.26455227,4.03755122 C5.99777412,4.03755364 6.86996204,3.84508559 7.86923068,3.49856784 C8.41184836,3.31040357 8.98088367,3.08019089 9.5661106,2.8171206 C10.144905,2.55694182 10.7087841,2.27873863 11.2361418,2.0004543 C11.4209509,1.90293134 11.5882238,1.81223556 11.735205,1.73061875 C11.8244194,1.68107912 11.8877451,1.64516397 11.9224104,1.62512909 L11.2438698,1.62771586 Z" id="Fill-1" fill="#333333" fill-rule="nonzero"></path>
                    <rect id="Rectangle-21" fill="#333333" x="1.36245675" y="7.08224794" width="20.4368512" height="1.35900935"></rect>
                    <path d="M15.3425296,14.3539073 L13.5024283,16.1437704 L13.2459486,16.3932582 L13.3066757,16.7454292 L13.7440644,19.2819494 C13.7392914,19.2017219 13.7629282,19.1220094 13.8153613,19.0497847 C13.9122995,18.9162557 14.0680999,18.842374 14.2119972,18.842374 C14.2744209,18.842374 14.3204306,18.856142 14.3465466,18.8710277 L12.0419362,17.6622843 L11.7249887,17.4961142 L11.4080411,17.6622842 L9.12446723,18.8595219 C9.13376643,18.8543703 9.17385536,18.842374 9.23797884,18.842374 C9.37582258,18.842374 9.53052058,18.9134038 9.62952918,19.0497847 C9.68196225,19.1220094 9.70559904,19.2017219 9.70559904,19.2682267 C9.70559904,19.2884884 10.1433004,16.7454289 10.1433004,16.7454289 L10.2041287,16.3926702 L9.94687669,16.1431186 L8.09560599,14.3472626 C8.14129955,14.3951158 8.17474048,14.4591598 8.17474048,14.5908834 C8.17474048,14.860459 7.99001795,15.0118116 7.88641962,15.0284192 L10.4294808,14.6596237 L10.7835122,14.6082713 L10.942094,14.2883952 L12.0864243,11.980162 C12.057426,12.0430953 11.9287749,12.1504693 11.7249886,12.1504693 C11.5212023,12.1504693 11.3925511,12.0430953 11.356113,11.9646649 L12.5078819,14.288395 L12.6664637,14.6082713 L13.0204952,14.6596237 L15.573621,15.0299558 C15.4599585,15.0118117 15.2752355,14.8604586 15.2752355,14.5908834 C15.2752355,14.4545163 15.314909,14.381458 15.3425296,14.3539073 Z M15.7797493,13.6866282 L13.2165593,13.3147596 L13.7291727,13.6859883 L12.5848435,11.3777551 C12.4270013,11.0374951 12.132212,10.7914599 11.7249886,10.7914599 C11.3177651,10.7914599 11.0229759,11.0374951 10.8576939,11.393252 L9.72080349,13.6859881 L10.2334167,13.3147596 L7.68029095,13.6850917 C7.18687876,13.764113 6.81228374,14.0710376 6.81228374,14.5908834 C6.81228374,14.8646536 6.93048797,15.0910311 7.12079975,15.296049 L8.99698428,17.1173728 L8.8005606,16.5150624 L8.36317309,19.0515826 C8.34911939,19.1477596 8.3431423,19.2073779 8.3431423,19.2682267 C8.3431423,19.4767768 8.40238024,19.6765503 8.52601629,19.8468546 C8.69622737,20.0813144 8.95772926,20.2013834 9.23797884,20.2013834 C9.42416539,20.2013834 9.5998767,20.1488032 9.76762439,20.0575353 L12.0419361,18.865245 L11.408041,18.8652449 L13.6916137,20.0624825 C13.8390966,20.147031 14.020731,20.2013834 14.2119972,20.2013834 C14.491521,20.2013834 14.750733,20.0784631 14.9188742,19.8468545 C15.0425102,19.6765503 15.1017482,19.4767768 15.1017482,19.2682267 C15.1017482,19.1948777 15.0985951,19.1319727 15.0898168,19.0706757 L14.6494154,16.5150621 L14.4536628,17.116721 L16.299848,15.3208649 C16.5098642,15.1114558 16.6376923,14.8760615 16.6376923,14.5908834 C16.6376923,14.0710377 16.2630975,13.7641128 15.7797493,13.6866282 Z" id="Page-1" fill="#333333" fill-rule="nonzero"></path>
                </g>
            </g>
        </g>
    </g>
</svg>