<svg width="29px" height="32px" viewBox="0 0 29 32" version="1.1" xmlns="http://www.w3.org/2000/svg" xmlns:xlink="http://www.w3.org/1999/xlink">
    <!-- Generator: Sketch 48.1 (47250) - http://www.bohemiancoding.com/sketch -->
    <desc>Created with Sketch.</desc>
    <defs></defs>
    <g id="Page-1" stroke="none" stroke-width="1" fill="none" fill-rule="evenodd">
        <g id="小程序首页改版" transform="translate(-129.000000, -337.000000)">
            <g id="分类" transform="translate(29.000000, 337.000000)">
                <g id="Group-9" transform="translate(100.000000, 0.000000)">
                    <polygon id="Rectangle-18" fill="#E8E8E8" transform="translate(16.200445, 16.293274) rotate(-45.000000) translate(-16.200445, -16.293274) " points="1.40136094 9.18634133 26.669726 9.18634133 30.9995291 16.2932744 27.0088987 23.4002074 1.40136094 23.4002074"></polygon>
                    <path d="M0.918084213,18.7362294 L0.918084213,16.9108493 L11.3366089,27.2681606 L9.50044048,27.2681606 L26.7883221,10.0818529 L26.4691788,11.385962 L23.9540273,3.52902463 L24.8398774,4.38017815 L16.7075256,2.1074375 L17.9769873,1.77755493 L0.918084213,18.7362294 Z M17.0589031,0.864864865 L25.1912548,3.13760551 L27.7064063,10.9945429 L10.4185247,28.1808506 L0,17.8235394 L17.0589031,0.864864865 Z" id="Rectangle-18" fill="#333333" fill-rule="nonzero"></path>
                    <path d="M22.721425,8.28661219 C22.721425,6.68268781 21.4135028,5.3824502 19.800099,5.3824502 C18.1866951,5.3824502 16.8787729,6.68268781 16.8787729,8.28661219 C16.8787729,9.89053658 18.1866951,11.1907742 19.800099,11.1907742 C21.4135028,11.1907742 22.721425,9.89053658 22.721425,8.28661219 Z M18.17714,8.28661219 C18.17714,7.39554309 18.9037635,6.67318886 19.800099,6.67318886 C20.6964344,6.67318886 21.4230579,7.39554309 21.4230579,8.28661219 C21.4230579,9.17768129 20.6964344,9.90003553 19.800099,9.90003553 C18.9037635,9.90003553 18.17714,9.17768129 18.17714,8.28661219 Z" id="Oval-6" fill="#333333" fill-rule="nonzero"></path>
                </g>
            </g>
        </g>
    </g>
</svg>