<?xml version="1.0" encoding="UTF-8"?>
<svg width="203px" height="158px" viewBox="0 0 203 158" version="1.1" xmlns="http://www.w3.org/2000/svg" xmlns:xlink="http://www.w3.org/1999/xlink">
    <!-- Generator: Sketch 42 (36781) - http://www.bohemiancoding.com/sketch -->
    <title>Slice</title>
    <desc>Created with Sketch.</desc>
    <defs>
        <polygon id="path-1" points="20.4060543 37 0.843489385 37 0.843489385 0.682819913 20.4060543 0.682819913"></polygon>
        <path d="M17.473,0.411 C17.473,0.411 10.106,0.604 9.372,0.626 C8.636,0.648 7.652,1.097 7.152,1.615 C6.9,1.876 1.578,7.494 1.578,7.494 C1.08,8.02 0.688,9.041 0.707,9.764 L0.923,17.863 C0.941,18.587 1.386,19.585 1.912,20.083 L7.79,25.658 C8.316,26.156 9.338,26.548 10.06,26.529 L18.159,26.312 C18.882,26.294 19.881,25.849 20.38,25.324 L25.954,19.445 C26.452,18.919 26.844,17.898 26.824,17.174 L26.608,9.075 C26.59,8.353 26.145,7.354 25.619,6.856 L19.741,1.28 C19.228,0.796 18.244,0.41 17.526,0.41 C17.508,0.41 17.49,0.411 17.473,0.411 Z" id="path-3"></path>
        <path d="M17.473,0.411 C17.473,0.411 10.106,0.604 9.372,0.626 C8.636,0.648 7.652,1.097 7.152,1.615 C6.9,1.876 1.578,7.494 1.578,7.494 C1.08,8.02 0.688,9.041 0.707,9.764 L0.923,17.863 C0.941,18.587 1.386,19.585 1.912,20.083 L7.79,25.658 C8.316,26.156 9.338,26.548 10.06,26.529 L18.159,26.312 C18.882,26.294 19.881,25.849 20.38,25.324 L25.954,19.445 C26.452,18.919 26.844,17.898 26.824,17.174 L26.608,9.075 C26.59,8.353 26.145,7.354 25.619,6.856 L19.741,1.28 C19.228,0.796 18.244,0.41 17.526,0.41 C17.508,0.41 17.49,0.411 17.473,0.411 Z" id="path-5"></path>
        <path d="M2.32425076,20.474 L1.912,20.083 C1.386,19.585 0.941,18.587 0.923,17.863 L0.707,9.764 C0.688,9.041 1.08,8.02 1.578,7.494 C1.578,7.494 6.9,1.876 7.152,1.615 C7.652,1.097 8.636,0.648 9.372,0.626 C10.106,0.604 17.473,0.411 17.473,0.411 C17.49,0.411 17.508,0.41 17.526,0.41 C18.244,0.41 19.228,0.796 19.741,1.28 L25.619,6.856 C26.145,7.354 26.59,8.353 26.608,9.075 L26.824,17.174 C26.844,17.898 26.452,18.919 25.954,19.445 L24.9783841,20.474 L2.32425076,20.474 L2.32425076,20.474 Z" id="path-7"></path>
        <path d="M17.473,0.411 C17.473,0.411 10.106,0.604 9.372,0.626 C8.636,0.648 7.652,1.097 7.152,1.615 C6.9,1.876 1.578,7.494 1.578,7.494 C1.08,8.02 0.688,9.041 0.707,9.764 L0.923,17.863 C0.941,18.587 1.386,19.585 1.912,20.083 L7.79,25.658 C8.316,26.156 9.338,26.548 10.06,26.529 L18.159,26.312 C18.882,26.294 19.881,25.849 20.38,25.324 L25.954,19.445 C26.452,18.919 26.844,17.898 26.824,17.174 L26.608,9.075 C26.59,8.353 26.145,7.354 25.619,6.856 L19.741,1.28 C19.228,0.796 18.244,0.41 17.526,0.41 C17.508,0.41 17.49,0.411 17.473,0.411 Z" id="path-9"></path>
        <path d="M17.473,0.411 C17.473,0.411 10.106,0.604 9.372,0.626 C8.636,0.648 7.652,1.097 7.152,1.615 C6.9,1.876 1.578,7.494 1.578,7.494 C1.08,8.02 0.688,9.041 0.707,9.764 L0.923,17.863 C0.941,18.587 1.386,19.585 1.912,20.083 L7.79,25.658 C8.316,26.156 9.338,26.548 10.06,26.529 L18.159,26.312 C18.882,26.294 19.881,25.849 20.38,25.324 L25.954,19.445 C26.452,18.919 26.844,17.898 26.824,17.174 L26.608,9.075 C26.59,8.353 26.145,7.354 25.619,6.856 L19.741,1.28 C19.228,0.796 18.244,0.41 17.526,0.41 C17.508,0.41 17.49,0.411 17.473,0.411 Z" id="path-11"></path>
        <path d="M14.8421,0.480100286 C12.6486527,0.53782926 9.81302036,0.612781406 9.372,0.626 C8.636,0.648 7.652,1.097 7.152,1.615 C6.9,1.876 1.578,7.494 1.578,7.494 C1.08,8.02 0.688,9.041 0.707,9.764 L0.923,17.863 C0.941,18.587 1.386,19.585 1.912,20.083 L7.79,25.658 C8.316,26.156 9.338,26.548 10.06,26.529 L14.8421,26.4008711 L14.8421,0.480100286 L14.8421,0.480100286 Z" id="path-13"></path>
    </defs>
    <g id="Page-1" stroke="none" stroke-width="1" fill="none" fill-rule="evenodd">
        <g transform="translate(-1.000000, -1.000000)">
            <g id="Group-109" transform="translate(0.000000, 0.563000)">
                <path d="M81.1236,124.9717 C71.9196,124.9717 63.2856,120.4897 54.9256,116.1467 C41.1056,108.9707 29.1706,102.7717 16.0626,115.7037 L11.5536,111.1337 C27.9846,94.9207 43.8706,103.1707 57.8846,110.4497 C74.6876,119.1737 89.1996,126.7097 106.6746,100.0667 L112.0426,103.5867 C102.8826,117.5537 93.1116,124.5427 82.1716,124.9517 C81.8206,124.9647 81.4716,124.9717 81.1236,124.9717" id="Fill-1" fill="#E0F4FF"></path>
                <path d="M15.8682,108.2178 L19.1432,112.6848 C20.1092,114.0008 19.8222,115.8668 18.5062,116.8328 L13.3262,120.6318 L6.5402,111.3798 L11.7202,107.5798 C13.0362,106.6138 14.9032,106.9018 15.8682,108.2178" id="Fill-3" fill="#E0F4FF"></path>
                <g id="Group-7" transform="translate(0.000000, 109.000000)" fill="#E0F4FF">
                    <path d="M10.9263,1.7314 L10.9263,1.7314 C11.6013,2.6514 11.4003,3.9564 10.4803,4.6304 L3.2963,9.8994 C2.3773,10.5744 1.0733,10.3734 0.3993,9.4544 C-0.2757,8.5354 -0.0737,7.2314 0.8443,6.5564 L8.0293,1.2874 C8.9483,0.6134 10.2523,0.8134 10.9263,1.7314" id="Fill-5"></path>
                </g>
                <path d="M15.2608,116.6426 L15.2608,116.6426 C15.9358,117.5626 15.7348,118.8656 14.8148,119.5396 L7.6308,124.8086 C6.7118,125.4836 5.4078,125.2836 4.7338,124.3646 C4.0588,123.4446 4.2598,122.1406 5.1788,121.4666 L12.3638,116.1966 C13.2828,115.5226 14.5868,115.7226 15.2608,116.6426" id="Fill-8" fill="#E0F4FF"></path>
                <g id="Group-12" transform="translate(141.000000, 120.000000)">
                    <mask id="mask-2" fill="white">
                        <use xlink:href="#path-1"></use>
                    </mask>
                    <g id="Clip-11"></g>
                    <path d="M10.2857,0.7363 C15.3017,1.2353 18.8247,3.5043 19.8997,9.6613 C21.2087,17.1463 20.3667,34.2133 12.7117,36.7093 C7.9117,38.2723 3.6287,33.3983 1.9867,25.3993 C0.8617,19.9123 -2.1283,-0.4957 10.2857,0.7363" id="Fill-10" fill="#F9A818" mask="url(#mask-2)"></path>
                </g>
                <path d="M102.7944,108.8115 C105.7794,118.6165 113.1114,139.5125 130.6864,139.9025 C135.7694,140.0145 140.8304,140.0275 142.3314,142.6715 C146.3484,149.7485 155.3184,137.4255 155.3004,130.0405 C155.2714,117.8755 146.6164,118.3495 136.0934,120.2145 C135.2124,120.3705 134.6234,109.0305 130.4194,102.2075 C126.3584,95.6175 97.5714,91.6625 102.7944,108.8115" id="Fill-13" fill="#E0F4FF"></path>
                <path d="M188.6714,105.1191 C193.6934,104.6961 197.5704,106.2861 199.7494,112.1431 C202.4004,119.2641 204.6804,136.1991 197.6094,140.0471 C193.1754,142.4591 188.0734,138.4471 185.0024,130.8811 C182.8984,125.6911 176.2404,106.1681 188.6714,105.1191" id="Fill-15" fill="#F9A818"></path>
                <path d="M195.0357,106.1435 C195.5937,107.0505 196.1267,108.0275 196.6197,109.0585 C198.6627,113.3085 200.1367,118.5405 200.1537,123.6365 C200.1727,129.0615 199.7997,133.4875 197.9267,136.6025 C196.8597,138.3775 195.3607,139.6965 193.2567,140.4885 C192.1507,140.1545 191.0567,139.4985 190.0117,138.5635 C192.8247,138.1715 194.5847,137.0185 195.6557,135.2365 C197.2147,132.6425 197.5237,128.6305 197.5067,123.6465 C197.4907,118.9705 196.1267,114.1475 194.2377,110.2135 C193.2747,108.2085 192.1957,106.4515 191.1107,105.0885 C192.5437,105.1875 193.8567,105.5155 195.0357,106.1435" id="Fill-17" fill="#FCDA9F"></path>
                <path d="M141.0689,105.8447 C146.8799,114.2877 156.5739,124.4507 174.1059,125.7057 C177.9459,125.9827 182.5299,124.8177 184.1139,125.9757 C187.8569,128.7147 195.4289,118.2227 193.8789,112.9357 C190.5459,101.5777 186.2839,102.9017 173.1919,104.9077 C172.3069,105.0427 166.9259,91.0187 160.8569,85.7857 C154.9949,80.7317 130.9049,91.0767 141.0689,105.8447" id="Fill-19" fill="#E0F4FF"></path>
                <path d="M109.5152,109.8174 C110.0522,117.1434 114.2072,126.5784 117.2132,130.0174 C120.2192,133.4584 129.6052,134.7464 123.0432,113.6394 C116.4842,92.5314 109.1042,94.6854 109.5152,109.8174" id="Fill-21" fill="#F4F9FC"></path>
                <path d="M142.7466,101.666 C146.0606,108.387 152.9566,114.919 156.6006,116.386 C160.2446,117.852 167.8716,113.34 154.5176,97.049 C141.1646,80.76 136.4256,87.356 142.7466,101.666" id="Fill-23" fill="#F4F9FC"></path>
                <path d="M115.4351,36.3511 C147.6841,26.9401 194.8281,96.2901 137.7851,112.9371 C80.7421,129.5831 83.1851,45.7631 115.4351,36.3511" id="Fill-25" fill="#BEDCED"></path>
                <path d="M115.4351,36.3511 C147.6841,26.9401 194.0471,93.6161 137.0041,110.2631 C79.9621,126.9101 83.1851,45.7631 115.4351,36.3511" id="Fill-27" fill="#E0F4FF"></path>
                <path d="M115.7173,37.3218 C143.4993,29.2138 184.4813,90.2228 135.3403,104.5638 C86.2003,118.9048 87.9353,45.4288 115.7173,37.3218" id="Fill-29" fill="#F4F9FC"></path>
                <path d="M114.646,33.6465 C125.472,30.4875 138.771,37.4385 148.195,47.6795 C135.581,66.0565 114.52,70.9745 94.149,62.5795 C96.606,48.9205 103.822,36.8065 114.646,33.6465" id="Fill-31" fill="#BEDCED"></path>
                <path d="M72.3511,29.8652 L75.6451,28.9042 L82.7991,53.4222 L79.5051,54.3822 C78.3841,54.7112 75.8731,49.4862 73.8981,42.7172 C71.9221,35.9462 71.2281,30.1932 72.3511,29.8652" id="Fill-33" fill="#E0F4FF"></path>
                <path d="M155.4214,32.228 C156.5434,31.901 155.8514,26.147 153.8754,19.377 C151.8994,12.606 149.3874,7.383 148.2684,7.71 L144.9734,8.672 L152.1274,33.189 L155.4214,32.228 Z" id="Fill-35" fill="#E0F4FF"></path>
                <path d="M75.6284,28.9087 L76.9214,28.5317 L84.0764,53.0487 L82.7844,53.4257 C73.5914,47.7677 70.9444,38.6147 75.6284,28.9087" id="Fill-37" fill="#BEDCED"></path>
                <path d="M145.2778,8.5825 L143.8928,8.9875 L151.0478,33.5045 L152.4328,33.1005 C156.9838,23.4305 154.3838,14.2645 145.2778,8.5825" id="Fill-39" fill="#BEDCED"></path>
                <path d="M105.5552,2.4971 C126.7462,-3.6879 147.6562,4.0811 152.2572,19.8491 C156.8582,35.6161 143.4092,53.4121 122.2172,59.5961 C101.0272,65.7811 80.1172,58.0121 75.5152,42.2451 C70.9132,26.4761 84.3632,8.6811 105.5552,2.4971" id="Fill-41" fill="#E0F4FF"></path>
                <path d="M107.2075,8.1611 C125.1875,2.9131 143.0145,9.7921 147.0205,23.5241 C151.0285,37.2571 139.7015,52.6421 121.7195,57.8901 C103.7395,63.1381 85.9145,56.2601 81.9055,42.5271 C77.8985,28.7951 89.2265,13.4081 107.2075,8.1611" id="Fill-43" fill="#F4F9FC"></path>
                <path d="M144.7212,21.2305 C144.7672,21.3735 144.8132,21.5145 144.8542,21.6585 C148.9042,35.5335 138.2802,50.8405 121.1242,55.8475 C103.9692,60.8535 86.7792,53.6635 82.7302,39.7885 C82.6882,39.6445 82.6502,39.5005 82.6112,39.3565 C93.3982,22.9725 125.9492,13.4265 144.7212,21.2305" id="Fill-45" fill="#FCD592"></path>
                <path d="M104.0464,35.1865 C103.9184,35.1865 103.7894,35.2055 103.6634,35.2415 C103.3154,35.3435 103.0254,35.5755 102.8504,35.8945 C102.6754,36.2145 102.6354,36.5825 102.7374,36.9315 C102.9424,37.6335 103.7104,38.0675 104.4274,37.8585 C105.1484,37.6475 105.5644,36.8895 105.3524,36.1685 C105.1854,35.5895 104.6474,35.1865 104.0464,35.1865 M104.0444,41.9265 C101.6714,41.9265 99.5504,40.3345 98.8854,38.0565 C98.4834,36.6775 98.6414,35.2255 99.3314,33.9665 C100.0234,32.7075 101.1614,31.7915 102.5394,31.3895 C103.0304,31.2465 103.5384,31.1735 104.0464,31.1735 C106.4194,31.1735 108.5414,32.7655 109.2054,35.0445 C110.0344,37.8895 108.3964,40.8795 105.5514,41.7105 C105.0594,41.8535 104.5524,41.9265 104.0444,41.9265" id="Fill-47" fill="#FFFFFF"></path>
                <path d="M103.1021,33.3159 C104.8871,32.7949 106.7571,33.8199 107.2791,35.6059 C107.8001,37.3929 106.7751,39.2629 104.9891,39.7839 C103.2031,40.3059 101.3321,39.2799 100.8111,37.4939 C100.2901,35.7079 101.3161,33.8369 103.1021,33.3159" id="Fill-49" fill="#000000"></path>
                <path d="M104.688,33.6479 C105.266,33.4789 105.873,33.8119 106.042,34.3899 C106.21,34.9679 105.878,35.5749 105.299,35.7429 C104.72,35.9119 104.114,35.5799 103.946,35.0019 C103.777,34.4219 104.109,33.8159 104.688,33.6479" id="Fill-51" fill="#FFFFFF"></path>
                <path d="M125.146,29.0298 C125.017,29.0298 124.888,29.0488 124.762,29.0858 C124.412,29.1878 124.123,29.4198 123.949,29.7378 C123.773,30.0568 123.733,30.4258 123.835,30.7758 C124.04,31.4768 124.807,31.9098 125.524,31.7008 C125.875,31.5988 126.163,31.3668 126.337,31.0488 C126.512,30.7288 126.553,30.3608 126.451,30.0108 C126.282,29.4338 125.746,29.0298 125.146,29.0298 M125.141,35.7698 C122.768,35.7698 120.647,34.1778 119.983,31.8988 C119.581,30.5208 119.74,29.0678 120.429,27.8088 C121.119,26.5498 122.258,25.6348 123.638,25.2338 C124.129,25.0898 124.636,25.0168 125.146,25.0168 C127.517,25.0168 129.638,26.6088 130.302,28.8868 C130.705,30.2658 130.546,31.7178 129.856,32.9768 C129.166,34.2368 128.026,35.1518 126.648,35.5528 C126.158,35.6968 125.65,35.7698 125.141,35.7698" id="Fill-53" fill="#FFFFFF"></path>
                <path d="M124.1987,27.1592 C125.9857,26.6372 127.8547,27.6622 128.3767,29.4492 C128.8977,31.2352 127.8727,33.1062 126.0867,33.6272 C124.3017,34.1492 122.4287,33.1232 121.9097,31.3372 C121.3877,29.5512 122.4127,27.6802 124.1987,27.1592" id="Fill-55" fill="#000000"></path>
                <path d="M125.7847,27.4907 C126.3637,27.3227 126.9707,27.6547 127.1387,28.2327 C127.3067,28.8117 126.9747,29.4177 126.3967,29.5867 C125.8187,29.7557 125.2127,29.4237 125.0437,28.8447 C124.8757,28.2657 125.2067,27.6597 125.7847,27.4907" id="Fill-57" fill="#FFFFFF"></path>
                <path d="M95.398,36.3642 C93.677,33.0722 100.683,25.7572 104.004,26.3662 C106.869,26.8912 101.835,27.3742 99.121,30.9552 C95.761,35.3892 96.803,39.0542 95.398,36.3642" id="Fill-59" fill="#381E1E"></path>
                <path d="M132.731,25.7554 C132.786,22.0424 123.234,18.6654 120.543,20.7044 C118.224,22.4634 122.937,20.6264 126.971,22.6024 C131.969,25.0484 132.688,28.7914 132.731,25.7554" id="Fill-61" fill="#381E1E"></path>
                <path d="M117.1812,41.2441 C125.8292,38.7171 137.5552,39.8681 135.1722,43.9591 C133.8402,46.2451 129.8762,45.9771 119.3142,48.6661 C110.5162,50.9051 105.8022,52.8671 103.6602,51.9771 C100.4112,50.6241 104.0992,45.0691 117.1812,41.2441" id="Fill-63" fill="#381E1E"></path>
                <path d="M110.27,43.7768 C110.294,43.8378 110.315,43.9008 110.333,43.9648 C110.672,45.1278 110.006,46.3448 108.842,46.6848 C107.928,46.9518 106.978,46.5948 106.451,45.8628 C107.499,45.1718 108.769,44.4678 110.27,43.7768" id="Fill-65" fill="#FFFFFF"></path>
                <path d="M115.8355,41.6548 C115.9175,42.6718 115.2795,43.6398 114.2645,43.9358 C113.3385,44.2068 112.3765,43.8378 111.8535,43.0908 C113.0565,42.5978 114.3825,42.1158 115.8355,41.6548" id="Fill-67" fill="#FFFFFF"></path>
                <path d="M122.2788,40.2036 C122.1798,41.0516 121.5858,41.7996 120.7138,42.0536 C119.6988,42.3496 118.6408,41.8776 118.1618,40.9766 C119.4998,40.6376 120.8908,40.3796 122.2788,40.2036" id="Fill-69" fill="#FFFFFF"></path>
                <path d="M129.0239,39.9902 C128.8579,40.7492 128.2939,41.3972 127.4939,41.6312 C126.3319,41.9692 125.1139,41.3022 124.7749,40.1392 C124.7579,40.0842 124.7439,40.0302 124.7319,39.9742 C126.2379,39.8842 127.6929,39.8912 129.0239,39.9902" id="Fill-71" fill="#FFFFFF"></path>
                <path d="M111.6958,50.7529 C112.1698,47.9429 113.7628,45.7119 115.4638,44.3219 C116.3628,43.5869 118.0398,47.6289 118.8468,47.4029 C119.5668,47.2019 119.7138,42.6599 120.6968,42.8999 C122.5418,43.3479 124.6998,44.6369 126.6178,47.0029 C124.6288,47.4099 122.2208,47.9259 119.3138,48.6669 C116.3218,49.4269 113.8008,50.1559 111.6958,50.7529" id="Fill-73" fill="#8F410E"></path>
                <path d="M95.0132,75.4629 C90.8592,78.3369 78.8822,76.6029 71.6332,74.6979 C64.3832,72.7929 55.2372,68.7069 51.7932,65.1579 C48.8502,62.1269 57.4572,49.9999 63.3642,54.3259 C69.0912,58.5199 73.6662,63.7439 81.2342,61.6779 C85.3212,60.5639 90.8742,60.3179 93.7472,61.6289 C98.3452,63.7299 99.1772,72.5809 95.0132,75.4629" id="Fill-75" fill="#E0F4FF"></path>
                <path d="M56.0737,68.334 C54.2877,67.274 52.7967,66.193 51.7927,65.158 C48.8507,62.127 57.4567,50 63.3647,54.326 C64.3707,55.062 65.3397,55.83 66.2967,56.584 C65.2747,60.146 62.4767,63.226 59.5527,66.09 C58.4487,67.173 57.2817,67.894 56.0737,68.334" id="Fill-77" fill="#BEDCED"></path>
                <path d="M95.0132,75.4629 C93.7822,76.3169 91.8582,76.7649 89.5762,76.9209 C94.9512,75.1649 97.9612,67.5919 91.2132,61.0269 C92.4502,61.1579 92.8822,61.2339 93.7472,61.6289 C98.3452,63.7299 99.1772,72.5809 95.0132,75.4629" id="Fill-79" fill="#BEDCED"></path>
                <path d="M57.1983,63.0234 C60.6793,59.6114 62.7093,56.0604 62.2613,50.8474 C61.5353,42.4104 58.8463,41.3234 57.2863,47.3584 C55.7873,53.1574 51.7623,48.1804 50.1423,44.1654 C48.3773,39.7904 42.9103,39.8774 45.4053,44.6654 C48.5103,50.6244 47.2963,51.9534 42.7183,48.3544 C40.0863,46.2854 35.2883,48.9914 39.4083,51.9464 C44.7093,55.7474 45.9323,58.2674 40.5213,56.9924 C37.1833,56.2054 34.4193,59.7204 39.7543,61.3064 C45.1443,62.9104 52.0323,68.0864 57.1983,63.0234" id="Fill-81" fill="#F9A818"></path>
                <path d="M43.6533,57.1074 C44.1263,57.7734 44.5463,58.5624 44.8113,59.3914 C45.0483,60.1344 45.1663,60.9154 45.1003,61.6794 C45.0523,62.2294 44.9113,62.7694 44.6543,63.2794 C44.0923,63.0334 43.5363,62.7834 42.9873,62.5404 C43.1633,62.2204 43.2583,61.8754 43.2893,61.5214 C43.3353,61.0044 43.2503,60.4644 43.0833,59.9404 C42.7003,58.7424 41.9153,57.6664 41.2303,57.1344 L41.1353,57.0604 C42.4243,57.3334 43.2473,57.3324 43.6533,57.1074 M45.0723,49.8974 C45.0533,50.3184 44.9993,50.7454 44.9083,51.1564 C44.7363,51.9374 44.4283,52.6894 43.9693,53.2854 C43.5773,53.7934 43.0823,54.1854 42.4743,54.3924 C41.8113,53.7384 40.9393,52.9974 39.8793,52.1894 C39.9613,52.2334 40.0443,52.2794 40.1313,52.3264 C40.7583,52.6734 41.2593,52.7874 41.6533,52.7334 C42.0083,52.6854 42.3013,52.4784 42.5323,52.1774 C42.8153,51.8114 43.0133,51.3104 43.1333,50.7654 C43.2963,50.0264 43.3123,49.2524 43.2013,48.6364 C43.9173,49.1934 44.5423,49.6144 45.0723,49.8974 M51.9503,47.4794 C51.4583,48.0184 50.8033,48.4604 50.0803,48.7324 C49.3193,49.0184 48.4703,49.1234 47.6383,48.9724 C47.4643,48.9404 47.2913,48.8974 47.1203,48.8424 C46.9953,48.0594 46.6163,46.9714 45.9713,45.5834 C46.1193,45.7594 46.2713,45.9534 46.4273,46.1694 C46.8623,46.7684 47.4063,47.0814 47.9643,47.1834 C48.4573,47.2734 48.9713,47.2054 49.4423,47.0284 C49.9223,46.8494 50.3453,46.5634 50.6453,46.2194 C50.7723,46.0754 50.8773,45.9214 50.9513,45.7644 C51.2513,46.3574 51.5903,46.9414 51.9503,47.4794 M62.2573,50.8334 C62.0643,50.9704 61.8603,51.0974 61.6493,51.2114 C61.1473,51.4814 60.5993,51.6874 60.0463,51.7914 C59.4613,51.9014 58.8653,51.9024 58.3003,51.7534 C57.3913,51.5144 56.5973,50.9224 56.1033,49.8374 C56.5943,49.4654 57.0263,48.7334 57.3573,47.5334 L57.3583,47.5314 C57.4003,47.7184 57.4383,47.9104 57.4713,48.1104 C57.6693,49.2904 58.1693,49.8424 58.7583,49.9984 C59.0493,50.0754 59.3773,50.0704 59.7123,50.0074 C60.0783,49.9384 60.4463,49.7984 60.7883,49.6154 C61.3123,49.3334 61.7643,48.9754 62.0193,48.6384 C62.1153,49.3024 62.1953,50.0344 62.2573,50.8334" id="Fill-83" fill="#FCDA9F"></path>
                <path d="M155.9771,61.8603 C160.9771,61.1393 168.5711,51.7163 172.5861,45.3883 C176.6031,39.0583 180.5231,29.8393 180.6301,24.8953 C180.7241,20.6723 166.1651,17.6433 164.7811,24.8343 C163.4381,31.8023 163.6411,38.7453 156.6911,42.3823 C152.9381,44.3463 148.7011,47.9463 147.4901,50.8613 C145.5491,55.5303 150.9641,62.5843 155.9771,61.8603" id="Fill-85" fill="#E0F4FF"></path>
                <path d="M179.6548,30.1362 C180.2438,28.1442 180.5998,26.3372 180.6308,24.8952 C180.7238,20.6732 166.1658,17.6432 164.7808,24.8342 C164.5458,26.0572 164.3568,27.2802 164.1688,28.4842 C167.3418,30.3982 171.4868,30.7492 175.5788,30.8592 C177.1268,30.9012 178.4688,30.6352 179.6548,30.1362" id="Fill-87" fill="#BEDCED"></path>
                <path d="M155.9771,61.8603 C157.4601,61.6453 159.1721,60.6663 160.9531,59.2263 C156.0411,61.8203 148.3801,58.3303 149.3111,48.1073 C148.4941,49.0453 147.8551,49.9843 147.4901,50.8613 C145.5491,55.5303 150.9641,62.5843 155.9771,61.8603" id="Fill-89" fill="#BEDCED"></path>
                <path d="M175.2183,27.0098 C170.3453,26.8798 166.4413,25.6598 163.2223,21.5348 C158.0113,14.8588 159.2403,12.2318 164.4923,15.5928 C169.5363,18.8218 169.0983,12.4358 167.5533,8.3898 C165.8683,3.9838 169.9353,0.3268 171.3643,5.5328 C173.1443,12.0128 174.9383,12.1598 175.8443,6.4068 C176.3643,3.0998 181.7203,1.8178 180.7133,6.7868 C179.4153,13.1788 180.2353,15.8588 183.3313,11.2408 C185.2423,8.3938 189.6593,9.0878 186.8303,13.8798 C183.9703,18.7228 182.4473,27.2028 175.2183,27.0098" id="Fill-91" fill="#F9A818"></path>
                <path d="M181.1157,13.4575 C181.2217,14.2665 181.4517,15.1315 181.8227,15.9185 C182.1527,16.6245 182.5977,17.2765 183.1667,17.7915 C183.5777,18.1625 184.0467,18.4615 184.5827,18.6595 C184.8267,18.0975 185.0637,17.5365 185.3017,16.9845 C184.9547,16.8705 184.6497,16.6825 184.3867,16.4445 C184.0017,16.0965 183.6957,15.6425 183.4617,15.1445 C182.9267,14.0065 182.7697,12.6835 182.9097,11.8295 L182.9277,11.7095 C182.1707,12.7855 181.5657,13.3455 181.1157,13.4575 M175.1697,9.1395 C175.4707,9.4355 175.7997,9.7115 176.1447,9.9515 C176.8037,10.4065 177.5407,10.7475 178.2827,10.8725 C178.9147,10.9775 179.5457,10.9275 180.1337,10.6665 C180.1727,9.7365 180.3067,8.5985 180.5337,7.2855 C180.5047,7.3725 180.4727,7.4625 180.4427,7.5575 C180.2187,8.2375 179.9287,8.6625 179.6047,8.8915 C179.3097,9.0975 178.9547,9.1445 178.5817,9.0825 C178.1257,9.0065 177.6387,8.7735 177.1807,8.4565 C176.5587,8.0265 176.0197,7.4695 175.6817,6.9425 C175.5377,7.8385 175.3637,8.5715 175.1697,9.1395 M168.4827,12.0495 C169.2107,12.1095 169.9907,11.9875 170.7067,11.6945 C171.4587,11.3855 172.1527,10.8865 172.6587,10.2085 C172.7657,10.0665 172.8627,9.9175 172.9497,9.7605 C172.5107,9.1025 172.0477,8.0465 171.5747,6.5905 C171.5857,6.8205 171.6057,7.0665 171.6377,7.3305 C171.7277,8.0655 171.5417,8.6655 171.2037,9.1195 C170.9037,9.5205 170.4797,9.8215 170.0147,10.0125 C169.5417,10.2075 169.0357,10.2855 168.5837,10.2395 C168.3907,10.2185 168.2107,10.1775 168.0497,10.1135 C168.2317,10.7515 168.3817,11.4095 168.4827,12.0495 M163.2147,21.5205 C163.4497,21.4905 163.6847,21.4445 163.9167,21.3835 C164.4687,21.2405 165.0107,21.0185 165.4867,20.7185 C165.9917,20.4015 166.4277,19.9965 166.7407,19.5025 C167.2427,18.7075 167.4217,17.7345 167.0457,16.6035 C166.4327,16.6655 165.6187,16.4235 164.5587,15.7685 L164.5567,15.7675 C164.6537,15.9325 164.7567,16.1005 164.8667,16.2685 C165.5267,17.2675 165.5347,18.0135 165.2097,18.5275 C165.0497,18.7825 164.8057,19.0025 164.5157,19.1845 C164.2027,19.3825 163.8377,19.5315 163.4617,19.6285 C162.8867,19.7785 162.3117,19.8245 161.8957,19.7515 C162.2757,20.3035 162.7157,20.8945 163.2147,21.5205" id="Fill-93" fill="#FCDA9F"></path>
                <path d="M157.3579,122.9023 C157.7399,123.8963 158.0869,124.9543 158.3859,126.0573 C159.6189,130.6103 160.1149,136.0213 159.2039,141.0373 C158.2339,146.3733 157.0599,150.6573 154.6519,153.3803 C153.2789,154.9303 151.5649,155.9533 149.3519,156.3503 C148.3259,155.8183 147.3689,154.9753 146.5109,153.8653 C149.3489,153.9933 151.2899,153.1803 152.6679,151.6223 C154.6719,149.3563 155.7089,145.4663 156.5989,140.5633 C157.4339,135.9623 156.9729,130.9723 155.8329,126.7603 C155.2499,124.6133 154.5079,122.6893 153.6909,121.1503 C155.0819,121.5083 156.3139,122.0723 157.3579,122.9023" id="Fill-95" fill="#FCDA9F"></path>
                <path d="M167.7134,119.2197 C169.1354,117.9707 173.4604,115.5937 178.7494,115.8397 C184.0364,116.0837 187.5304,119.3437 184.9024,121.6137 C182.2744,123.8807 177.3394,123.5407 173.6984,122.8297 C170.0594,122.1167 166.1914,120.6217 167.7134,119.2197" id="Fill-97" fill="#F4F9FC"></path>
                <path d="M131.5239,134.4844 C132.8689,133.2564 136.9809,130.9424 142.0489,131.2534 C147.1179,131.5604 150.5029,134.8514 148.0149,137.0804 C145.5249,139.3094 140.7949,138.9094 137.2989,138.1544 C133.8039,137.4004 130.0829,135.8624 131.5239,134.4844" id="Fill-99" fill="#F4F9FC"></path>
                <path d="M142.3413,142.6894 C146.3623,149.7274 155.3193,137.4204 155.3003,130.0414 C155.2833,123.5384 152.8043,120.6484 148.8933,119.6494 C148.9783,119.8134 149.0703,119.9894 149.1703,120.1764 C150.9753,123.5494 153.3823,137.4194 146.0143,141.0054 C144.7743,141.6104 143.5383,142.1714 142.3413,142.6894" id="Fill-101" fill="#BEDCED"></path>
                <path d="M183.8403,125.8125 C183.9383,125.8605 184.0303,125.9155 184.1133,125.9755 C187.8573,128.7145 195.4293,118.2225 193.8783,112.9355 C192.3023,107.5685 190.5203,105.0345 187.6953,104.0645 C190.0623,107.9875 191.6703,111.6995 191.2733,114.7635 C190.7513,118.7715 188.6113,122.8855 183.8403,125.8125" id="Fill-103" fill="#BEDCED"></path>
                <path d="M125.1099,69.5049 C125.6249,69.3539 126.1459,69.3139 126.6479,69.3719 L126.4989,70.6919 C126.1669,70.6539 125.8219,70.6799 125.4809,70.7799 C124.7959,70.9799 124.2559,71.4399 123.9359,72.0229 C123.6169,72.6029 123.5209,73.3059 123.7219,73.9929 C123.9219,74.6799 124.3809,75.2209 124.9629,75.5379 C125.2559,75.6979 125.5809,75.8029 125.9179,75.8419 L125.7679,77.1629 C125.2579,77.1049 124.7659,76.9469 124.3239,76.7029 C123.4439,76.2209 122.7489,75.4029 122.4449,74.3639 C122.1409,73.3249 122.2879,72.2629 122.7709,71.3819 C123.2539,70.5029 124.0709,69.8079 125.1099,69.5049 L125.1099,69.5049 Z M126.6479,69.3719 C127.1579,69.4299 127.6479,69.5869 128.0909,69.8299 C128.9709,70.3129 129.6669,71.1299 129.9699,72.1689 C130.2729,73.2079 130.1269,74.2709 129.6449,75.1509 C129.1629,76.0299 128.3449,76.7269 127.3059,77.0289 C126.7909,77.1799 126.2699,77.2199 125.7679,77.1629 L125.9179,75.8419 C126.2479,75.8789 126.5919,75.8519 126.9329,75.7529 C127.6199,75.5519 128.1599,75.0939 128.4789,74.5109 C128.7979,73.9299 128.8939,73.2289 128.6939,72.5409 C128.4929,71.8539 128.0349,71.3139 127.4529,70.9949 C127.1599,70.8339 126.8359,70.7319 126.4989,70.6919 L126.6479,69.3719 Z" id="Fill-105" fill="#FFFFFF"></path>
                <path d="M133.6675,45.5859 C139.0635,41.3979 148.7495,26.6019 138.4815,22.6129 C127.1575,18.2149 109.7635,23.9869 100.5915,28.0949 C109.0475,25.1669 123.9135,22.0209 135.2375,26.4199 C145.5045,30.4079 137.5705,41.7139 133.6675,45.5859" id="Fill-107" fill="#FFFFFF"></path>
            </g>
            <g id="Group-128" transform="translate(117.000000, 70.563000)">
                <g id="Group-112">
                    <mask id="mask-4" fill="white">
                        <use xlink:href="#path-3"></use>
                    </mask>
                    <g id="Clip-111"></g>
                    <polygon id="Fill-110" fill="#540362" mask="url(#mask-4)" points="-10.2348 -19.3711 -23.4828 17.3909 32.2592 37.4789 45.5072 0.7169"></polygon>
                </g>
                <g id="Group-115">
                    <mask id="mask-6" fill="white">
                        <use xlink:href="#path-5"></use>
                    </mask>
                    <g id="Clip-114"></g>
                    <polygon id="Fill-113" fill="#7819BF" mask="url(#mask-6)" points="-14.7632 -27.7124 -28.0112 9.0486 27.7308 29.1366 40.9788 -7.6254"></polygon>
                </g>
                <g id="Group-118">
                    <mask id="mask-8" fill="white">
                        <use xlink:href="#path-7"></use>
                    </mask>
                    <g id="Clip-117"></g>
                    <polygon id="Fill-116" fill="#EC1854" mask="url(#mask-8)" points="-25.4673 -20.251 -23.8593 20.474 38.1317 18.025 36.5227 -22.698"></polygon>
                </g>
                <g id="Group-121">
                    <mask id="mask-10" fill="white">
                        <use xlink:href="#path-9"></use>
                    </mask>
                    <g id="Clip-120"></g>
                    <polygon id="Fill-119" fill="#FE6541" mask="url(#mask-10)" points="35.0679 3.8965 -44.3571 40.1295 -58.3181 9.5295 21.1079 -26.7055"></polygon>
                </g>
                <g id="Group-124">
                    <mask id="mask-12" fill="white">
                        <use xlink:href="#path-11"></use>
                    </mask>
                    <g id="Clip-123"></g>
                    <polygon id="Fill-122" fill="#FF9C12" mask="url(#mask-12)" points="-13.7065 35.3135 -43.4075 7.4065 -0.9265 -37.8065 28.7745 -9.8985"></polygon>
                </g>
                <g id="Group-127">
                    <mask id="mask-14" fill="white">
                        <use xlink:href="#path-13"></use>
                    </mask>
                    <g id="Clip-126"></g>
                    <polygon id="Fill-125" fill="#FFD812" mask="url(#mask-14)" points="-6.5239 39.1074 -42.9709 25.0174 -21.6049 -30.2476 14.8421 -16.1566"></polygon>
                </g>
            </g>
        </g>
    </g>
</svg>