
<svg width="25px" height="25px" viewBox="0 0 25 25" version="1.1" xmlns="http://www.w3.org/2000/svg" xmlns:xlink="http://www.w3.org/1999/xlink">
    <!-- Generator: Sketch 49 (51002) - http://www.bohemiancoding.com/sketch -->
    <desc>Created with Sketch.</desc>
    <defs></defs>
    <g id="Page-1" stroke="none" stroke-width="1" fill="none" fill-rule="evenodd">
        <g id="关注微信弹窗" transform="translate(-63.000000, -514.000000)" fill="#FFBD00" fill-rule="nonzero">
            <g id="Group-3" transform="translate(52.000000, 504.000000)">
                <g id="下载" transform="translate(11.000000, 10.000000)">
                    <path d="M24.521377,21.2850107 C24.6258433,21.7028759 24.6040795,22.0989774 24.4560855,22.473315 C24.3080916,22.8476526 24.0773952,23.1784626 23.7639962,23.4657449 C23.4505973,23.7530273 23.0675542,23.9793709 22.6148668,24.1447759 C22.1621795,24.3101809 21.67467,24.3928834 21.1523385,24.3928834 C17.8616497,24.4102945 14.919182,24.419 12.3249353,24.419 L3.44529891,24.419 C2.81850105,24.419 2.26570016,24.3058282 1.78689624,24.0794845 C1.30809231,23.8531408 0.925049176,23.574564 0.637766824,23.243754 C0.350484471,22.912944 0.158962902,22.5516647 0.0632021176,22.159916 C-0.0325586667,21.7681674 -0.0195003779,21.4155936 0.102376984,21.1021947 C0.206843294,20.8584399 0.311309604,20.6059797 0.415775914,20.3448139 C0.502831173,20.1184702 0.607297483,19.8616572 0.729174845,19.5743749 C0.851052207,19.2870925 0.981635094,18.9954574 1.12092351,18.6994695 L2.11335345,16.2967444 L5.09064329,16.2967444 L3.96763046,19.5874332 L20.7867064,19.5874332 L19.6636936,16.2967444 L22.5104005,16.2967444 C22.8760326,17.184708 23.2068426,17.9856164 23.5028305,18.6994695 C23.6247078,19.0128684 23.7465852,19.3175619 23.8684625,19.6135497 C23.9903399,19.9095376 24.099159,20.1750561 24.1949198,20.4101053 C24.2906805,20.6451545 24.3690303,20.8453816 24.429969,21.0107866 C24.4909076,21.1761916 24.521377,21.2675996 24.521377,21.2850107 Z M11.3847113,16.4534439 C11.0539013,16.0704007 10.6752109,15.5915968 10.2486402,15.0170321 C9.82206939,14.4424674 9.38244033,13.8504916 8.92975299,13.2411048 C8.47706564,12.631718 8.02873106,12.0310367 7.58474924,11.439061 C7.14076743,10.8470852 6.744666,10.3334592 6.39644497,9.89818289 C5.99599078,9.42808449 5.83929131,9.04068859 5.92634657,8.73599519 C6.01340183,8.43130178 6.30938971,8.27895508 6.81431021,8.27895508 C7.09288703,8.29636613 7.46722465,8.29201337 7.93732304,8.26589679 C8.40742144,8.23978021 8.7991701,8.22672193 9.11256903,8.22672193 C9.46079006,8.22672193 9.67842821,8.12225561 9.76548347,7.91332299 C9.85253873,7.70439037 9.89606636,7.42581355 9.89606636,7.07759251 C9.89606636,6.69454938 9.89171359,6.27233137 9.88300807,5.8109385 C9.87430254,5.34954563 9.86994978,4.87509447 9.86994978,4.38758503 C9.86994978,3.90007558 9.86559702,3.42127166 9.85689149,2.95117326 C9.84818596,2.48107487 9.8438332,2.04579857 9.8438332,1.64534439 C9.8438332,1.47123387 9.85689149,1.28841783 9.88300807,1.09689626 C9.90912465,0.905374688 9.97006333,0.731264171 10.0658241,0.574564706 C10.1615849,0.417865241 10.3008733,0.287282353 10.4836894,0.182816043 C10.6665054,0.0783497326 10.9146129,0.0261165775 11.2280118,0.0261165775 C11.5936439,0.0261165775 11.9288066,0.0217638146 12.2335,0.0130582888 C12.5381935,0.00435276292 12.8907672,0 13.2912214,0 C13.8657861,0 14.253182,0.134935651 14.4534091,0.404806952 C14.6536362,0.674678253 14.7624553,1.10560178 14.7798664,1.69757754 L14.7798664,2.71612406 C14.7798664,3.11657825 14.7842191,3.54314902 14.7929246,3.99583636 C14.8016302,4.44852371 14.8059829,4.90121105 14.8059829,5.3538984 L14.8059829,6.58137754 C14.8059829,7.08629804 14.8582161,7.49110499 14.9626824,7.7957984 C15.0671487,8.1004918 15.3021979,8.24413298 15.66783,8.22672193 C15.9289958,8.22672193 16.2467475,8.23542745 16.6210851,8.2528385 C16.9954227,8.27024955 17.3218799,8.27895508 17.6004567,8.27895508 C18.0705551,8.27895508 18.3708958,8.4051852 18.5014787,8.65764545 C18.6320615,8.9101057 18.5406535,9.23656292 18.2272546,9.63701711 C17.8964446,10.0548824 17.5134015,10.5598029 17.0781252,11.1517786 C16.6428489,11.7437544 16.1945143,12.3574939 15.7331214,12.9929973 C15.2717286,13.6285007 14.8190412,14.246593 14.3750594,14.8472743 C13.9310776,15.4479556 13.5349762,15.9659344 13.1867551,16.4012107 C12.8733562,16.8016649 12.5730156,17.0062447 12.2857332,17.0149503 C11.9984508,17.0236558 11.6981102,16.836487 11.3847113,16.4534439 Z" id="Shape"></path>
                </g>
            </g>
        </g>
    </g>
</svg>